<svg width="41" height="40" viewBox="0 0 41 40" fill="none" xmlns="http://www.w3.org/2000/svg">
<path d="M20.5003 7.73245C23.366 7.68837 26.1373 8.75576 28.2328 10.7106L33.8769 5.19263C30.2558 1.80019 25.4623 -0.0600286 20.5003 0.00147803C16.7928 0.000621521 13.1581 1.03093 10.0028 2.97719C6.84743 4.92345 4.29583 7.70892 2.6333 11.0221L9.10049 16.0421C9.89126 13.6382 11.4169 11.543 13.4621 10.0521C15.5074 8.56127 17.9692 7.7499 20.5003 7.73245Z" fill="#EA4335"/>
<path d="M39.7001 20.4413C39.7237 19.0668 39.5816 17.6944 39.2771 16.3538H20.5005V23.7752H31.5234C31.3143 25.0764 30.8441 26.3218 30.1412 27.4366C29.4383 28.5514 28.5171 29.5125 27.433 30.2622L33.7445 35.1496C35.7114 33.2509 37.2583 30.9609 38.2851 28.4275C39.312 25.894 39.796 23.1734 39.7059 20.4413H39.7001Z" fill="#4285F4"/>
<path d="M9.12382 23.9514C8.68655 22.6784 8.46112 21.3424 8.45652 19.9965C8.4645 18.6528 8.68184 17.3185 9.10074 16.0416L2.63356 11.0216C1.23088 13.8058 0.500244 16.88 0.500244 19.9975C0.500244 23.115 1.23088 26.1891 2.63356 28.9733L9.12382 23.9514Z" fill="#FBBC05"/>
<path d="M20.5009 39.9924C25.3725 40.1302 30.1118 38.3971 33.7449 35.1493L27.4334 30.2619C25.387 31.6335 22.9636 32.3326 20.5009 32.2615C17.9719 32.2464 15.512 31.4356 13.4699 29.9441C11.4278 28.4525 9.90733 26.356 9.12417 23.9518L2.65698 28.9737C4.31503 32.2854 6.86246 35.0703 10.014 37.0164C13.1655 38.9624 16.7967 39.9929 20.5009 39.9924Z" fill="#34A853"/>
</svg>
