<svg width="41" height="40" viewBox="0 0 41 40" fill="none" xmlns="http://www.w3.org/2000/svg">
<path d="M0.500244 20C0.500244 8.95434 9.45455 3.43323e-05 20.5002 3.43323e-05C31.5459 3.43323e-05 40.5002 8.95434 40.5002 20C40.5002 31.0457 31.5459 40 20.5002 40C9.45455 40 0.500244 31.0457 0.500244 20Z" fill="#4680C2"/>
<path fill-rule="evenodd" clip-rule="evenodd" d="M33.1621 13.6923C33.3597 13.0713 33.1621 12.6196 32.287 12.6196H29.3794C28.6455 12.6196 28.3067 13.0148 28.1091 13.4382C28.1091 13.4382 26.613 17.0515 24.5241 19.3945C23.8466 20.072 23.5361 20.2978 23.1691 20.2978C22.9715 20.2978 22.7175 20.072 22.7175 19.4509V13.6641C22.7175 12.9301 22.4916 12.5914 21.8706 12.5914H17.2976C16.8459 12.5914 16.5636 12.9301 16.5636 13.2689C16.5636 13.9746 17.6081 14.144 17.721 16.12V20.4107C17.721 21.3423 17.5516 21.5116 17.1847 21.5116C16.1967 21.5116 13.7972 17.8701 12.3576 13.7205C12.0753 12.9019 11.793 12.5914 11.059 12.5914H8.12326C7.2764 12.5914 7.13525 12.9866 7.13525 13.41C7.13525 14.1722 8.12326 18.0113 11.7365 23.0924C14.136 26.5646 17.5516 28.4277 20.6285 28.4277C22.4916 28.4277 22.7175 28.0042 22.7175 27.2985V24.6732C22.7175 23.8264 22.8868 23.6852 23.4796 23.6852C23.9031 23.6852 24.6652 23.9111 26.3872 25.5766C28.3632 27.5526 28.7019 28.4559 29.8029 28.4559H32.7104C33.5573 28.4559 33.9525 28.0325 33.7266 27.2138C33.4726 26.3952 32.5128 25.2096 31.2708 23.7982C30.5933 23.0078 29.577 22.1327 29.2665 21.7092C28.8431 21.1447 28.956 20.9188 29.2665 20.4107C29.2383 20.4107 32.7951 15.386 33.1621 13.6923Z" fill="white"/>
</svg>
