<svg width="41" height="40" viewBox="0 0 41 40" fill="none" xmlns="http://www.w3.org/2000/svg">
<path d="M40.5 20C40.5 31.0457 31.5457 40 20.5 40C9.4543 40 0.5 31.0457 0.5 20C0.5 8.95434 9.4543 3.43323e-05 20.5 3.43323e-05C31.5457 3.43323e-05 40.5 8.95434 40.5 20Z" fill="#ED1E24"/>
<path d="M22.9263 21.056H21.5223C19.3163 21.056 17.177 19.5202 17.177 15.6799C17.177 11.6802 19.1828 10.0481 21.2214 10.0481H22.9263V21.056ZM25.1323 8.00004H21.322C17.5776 8.00004 14.403 10.7205 14.403 16.0003C14.403 19.1682 15.9405 21.5043 18.6816 22.6557L13.567 31.4878C13.3997 31.7759 13.567 32 13.8341 32H16.2075C16.4078 32 16.5423 31.9361 16.609 31.7759L21.2553 23.104H22.9263V31.7759C22.9263 31.8722 23.0269 32 23.1604 32H25.2329C25.4332 32 25.5 31.9037 25.5 31.7444V8.31963C25.5 8.09636 25.3665 8.00004 25.1323 8.00004Z" fill="white"/>
</svg>
