<svg width="21" height="20" viewBox="0 0 21 20" fill="none" xmlns="http://www.w3.org/2000/svg">
<path d="M5.30337 3.35C5.39726 3.24023 5.51381 3.15211 5.64501 3.09169C5.7762 3.03127 5.91893 2.99999 6.06337 3H14.6034C14.7478 2.99999 14.8905 3.03127 15.0217 3.09169C15.1529 3.15211 15.2695 3.24023 15.3634 3.35L17.9724 6.394C18.2053 6.66583 18.3334 7.01201 18.3334 7.37V7.625C18.3334 8.11998 18.1788 8.6026 17.8912 9.00542C17.6036 9.40824 17.1972 9.71113 16.729 9.87174C16.2609 10.0324 15.7542 10.0427 15.2798 9.90127C14.8055 9.75986 14.3872 9.47377 14.0834 9.083C13.8615 9.36877 13.5772 9.59998 13.2522 9.75892C12.9272 9.91786 12.5702 10.0003 12.2084 10C11.8466 10.0004 11.4895 9.91797 11.1645 9.75902C10.8395 9.60007 10.5552 9.36882 10.3334 9.083C10.1116 9.36882 9.82726 9.60007 9.50226 9.75902C9.17725 9.91797 8.82017 10.0004 8.45837 10C8.09658 10.0004 7.7395 9.91797 7.41449 9.75902C7.08948 9.60007 6.80518 9.36882 6.58337 9.083C6.27957 9.47377 5.86126 9.75986 5.38691 9.90127C4.91257 10.0427 4.40589 10.0324 3.9377 9.87174C3.46951 9.71113 3.0632 9.40824 2.77556 9.00542C2.48792 8.6026 2.33332 8.11998 2.33337 7.625V7.37C2.33339 7.01201 2.46143 6.66583 2.69437 6.394L5.30337 3.35ZM7.08337 7.625C7.08337 7.98967 7.22824 8.33941 7.4861 8.59727C7.74396 8.85513 8.0937 9 8.45837 9C8.82305 9 9.17278 8.85513 9.43065 8.59727C9.68851 8.33941 9.83337 7.98967 9.83337 7.625C9.83337 7.49239 9.88605 7.36521 9.97982 7.27145C10.0736 7.17768 10.2008 7.125 10.3334 7.125C10.466 7.125 10.5932 7.17768 10.6869 7.27145C10.7807 7.36521 10.8334 7.49239 10.8334 7.625C10.8334 7.98967 10.9782 8.33941 11.2361 8.59727C11.494 8.85513 11.8437 9 12.2084 9C12.573 9 12.9228 8.85513 13.1806 8.59727C13.4385 8.33941 13.5834 7.98967 13.5834 7.625C13.5834 7.49239 13.6361 7.36521 13.7298 7.27145C13.8236 7.17768 13.9508 7.125 14.0834 7.125C14.216 7.125 14.3432 7.17768 14.4369 7.27145C14.5307 7.36521 14.5834 7.49239 14.5834 7.625C14.5834 7.98967 14.7282 8.33941 14.9861 8.59727C15.244 8.85513 15.5937 9 15.9584 9C16.323 9 16.6728 8.85513 16.9306 8.59727C17.1885 8.33941 17.3334 7.98967 17.3334 7.625V7.37C17.3334 7.25083 17.2908 7.13557 17.2134 7.045L14.6034 4H6.06337L3.45337 7.045C3.37592 7.13557 3.33336 7.25083 3.33337 7.37V7.625C3.33337 7.98967 3.47824 8.33941 3.7361 8.59727C3.99396 8.85513 4.3437 9 4.70837 9C5.07305 9 5.42278 8.85513 5.68065 8.59727C5.93851 8.33941 6.08337 7.98967 6.08337 7.625C6.08337 7.49239 6.13605 7.36521 6.22982 7.27145C6.32359 7.17768 6.45077 7.125 6.58337 7.125C6.71598 7.125 6.84316 7.17768 6.93693 7.27145C7.0307 7.36521 7.08337 7.49239 7.08337 7.625ZM3.83337 10.5C3.96598 10.5 4.09316 10.5527 4.18693 10.6464C4.2807 10.7402 4.33337 10.8674 4.33337 11V17H7.83337V13C7.83337 12.7348 7.93873 12.4804 8.12627 12.2929C8.3138 12.1054 8.56816 12 8.83337 12H11.8334C12.0986 12 12.3529 12.1054 12.5405 12.2929C12.728 12.4804 12.8334 12.7348 12.8334 13V17H16.3334V11C16.3334 10.8674 16.3861 10.7402 16.4798 10.6464C16.5736 10.5527 16.7008 10.5 16.8334 10.5C16.966 10.5 17.0932 10.5527 17.1869 10.6464C17.2807 10.7402 17.3334 10.8674 17.3334 11V17H17.8334C17.966 17 18.0932 17.0527 18.1869 17.1464C18.2807 17.2402 18.3334 17.3674 18.3334 17.5C18.3334 17.6326 18.2807 17.7598 18.1869 17.8536C18.0932 17.9473 17.966 18 17.8334 18H2.83337C2.70077 18 2.57359 17.9473 2.47982 17.8536C2.38605 17.7598 2.33337 17.6326 2.33337 17.5C2.33337 17.3674 2.38605 17.2402 2.47982 17.1464C2.57359 17.0527 2.70077 17 2.83337 17H3.33337V11C3.33337 10.8674 3.38605 10.7402 3.47982 10.6464C3.57359 10.5527 3.70077 10.5 3.83337 10.5ZM8.83337 17H11.8334V13H8.83337V17Z" fill="#7885A5"/>
</svg>
