<svg width="48" height="48" viewBox="0 0 48 48" fill="none" xmlns="http://www.w3.org/2000/svg">
<g clip-path="url(#clip0_3009_1233)">
<path d="M17.6508 14.72V0.799969C17.6508 0.358406 17.2924 0 16.8508 0H12.0508C11.6093 0 11.2509 0.358406 11.2509 0.799969V14.72C8.27646 16.4032 6.45002 19.52 6.45087 22.968V47.2C6.45087 47.6424 6.80927 48 7.25084 48H21.6508C22.0924 48 22.4508 47.6424 22.4508 47.2V22.9688C22.4516 19.52 20.6252 16.4032 17.6508 14.72ZM20.8508 46.4H8.0508V22.968C8.04921 19.9624 9.71965 17.26 12.4084 15.916C12.6796 15.78 12.8508 15.5033 12.8508 15.2001V1.60003H16.0508V15.2001C16.0508 15.5033 16.222 15.7808 16.4932 15.916C19.182 17.2592 20.8516 19.9616 20.8508 22.968V46.4Z" fill="white"/>
<path d="M16.8498 4.00012H12.0498V5.60015H16.8498V4.00012Z" fill="white"/>
<path d="M41.4747 25.8944L40.0427 15.8864C39.9867 15.4928 39.6491 15.2 39.2507 15.2H29.6507C29.2531 15.2 28.9155 15.4927 28.8579 15.8864L27.4267 25.8504C27.2907 26.7624 27.3403 27.6769 27.5675 28.552L27.7068 29.1384C28.4827 32.236 31.2556 34.3992 34.4492 34.4001C34.4539 34.4001 34.4571 34.4001 34.4612 34.4001C37.6339 34.4001 40.402 32.2561 41.1972 29.1681L41.3284 28.6097C41.5611 27.7168 41.6099 26.8016 41.4747 25.8944ZM39.7763 28.224L39.6443 28.784C39.0348 31.1496 36.9043 32.7999 34.4612 32.7999C34.4571 32.7999 34.4539 32.7999 34.4508 32.7999C31.9915 32.7999 29.8563 31.1344 29.262 28.76L29.1212 28.1663C28.9428 27.4839 28.906 26.7839 29.0107 26.0824L30.3436 16.8H38.5572L39.8924 26.1256C39.9964 26.8232 39.9595 27.5232 39.7763 28.224Z" fill="white"/>
<path d="M35.2475 33.6H33.6475V44H35.2475V33.6Z" fill="white"/>
<path d="M36.0516 43.2001H32.8516C30.646 43.2001 28.8516 44.9945 28.8516 47.2001C28.8516 47.6425 29.2091 48.0001 29.6515 48.0001H39.2515C39.6939 48.0001 40.0515 47.6425 40.0515 47.2001C40.0516 44.9945 38.2572 43.2001 36.0516 43.2001ZM30.5884 46.4C30.9188 45.4688 31.8092 44.8 32.8516 44.8H36.0516C37.0947 44.8 37.9844 45.4688 38.3148 46.4H30.5884Z" fill="white"/>
<path d="M40.8488 26.4H28.0488V28H40.8488V26.4Z" fill="white"/>
<path d="M16.8498 11.2H12.0498V12.8H16.8498V11.2Z" fill="white"/>
<path d="M18.4503 24.8H10.4504C10.0088 24.8 9.65039 25.1576 9.65039 25.6V40C9.65039 40.4424 10.0088 40.7999 10.4504 40.7999H18.4503C18.8919 40.7999 19.2503 40.4424 19.2503 40V25.6C19.2503 25.1576 18.8919 24.8 18.4503 24.8ZM17.6504 39.2H11.2503V26.4H17.6504V39.2Z" fill="white"/>
</g>
<defs>
<clipPath id="clip0_3009_1233">
<rect width="48" height="48" fill="white"/>
</clipPath>
</defs>
</svg>
