<svg width="21" height="20" viewBox="0 0 21 20" fill="none" xmlns="http://www.w3.org/2000/svg">
<path d="M2.15754 15.4468H19.1757C19.3059 15.4468 19.4308 15.3964 19.5228 15.3066C19.6149 15.2168 19.6666 15.0951 19.6666 14.9681C19.6666 14.8411 19.6149 14.7194 19.5228 14.6296C19.4308 14.5398 19.3059 14.4894 19.1757 14.4894H18.3575V13.0532C18.3554 11.1476 17.6103 9.31411 16.2734 7.92438C14.9364 6.53465 13.1075 5.69268 11.1575 5.56915V3.95745H12.6303C12.7605 3.95745 12.8853 3.90701 12.9774 3.81723C13.0695 3.72745 13.1212 3.60569 13.1212 3.47872C13.1212 3.35176 13.0695 3.22999 12.9774 3.14021C12.8853 3.05044 12.7605 3 12.6303 3H8.70299C8.57279 3 8.44793 3.05044 8.35586 3.14021C8.2638 3.22999 8.21208 3.35176 8.21208 3.47872C8.21208 3.60569 8.2638 3.72745 8.35586 3.81723C8.44793 3.90701 8.57279 3.95745 8.70299 3.95745H10.1757V5.56915C8.22574 5.69268 6.39688 6.53465 5.0599 7.92438C3.72291 9.31411 2.97784 11.1476 2.97572 13.0532V14.4894H2.15754C2.02734 14.4894 1.90247 14.5398 1.81041 14.6296C1.71835 14.7194 1.66663 14.8411 1.66663 14.9681C1.66663 15.0951 1.71835 15.2168 1.81041 15.3066C1.90247 15.3964 2.02734 15.4468 2.15754 15.4468ZM3.95754 13.0532C3.95754 11.318 4.66438 9.65387 5.92258 8.42691C7.18078 7.19994 8.88726 6.51064 10.6666 6.51064C12.446 6.51064 14.1525 7.19994 15.4107 8.42691C16.6689 9.65387 17.3757 11.318 17.3757 13.0532V14.4894H3.95754V13.0532ZM19.6666 17.5213C19.6666 17.6482 19.6149 17.77 19.5228 17.8598C19.4308 17.9496 19.3059 18 19.1757 18H2.15754C2.02734 18 1.90247 17.9496 1.81041 17.8598C1.71835 17.77 1.66663 17.6482 1.66663 17.5213C1.66663 17.3943 1.71835 17.2725 1.81041 17.1828C1.90247 17.093 2.02734 17.0426 2.15754 17.0426H19.1757C19.3059 17.0426 19.4308 17.093 19.5228 17.1828C19.6149 17.2725 19.6666 17.3943 19.6666 17.5213Z" fill="#7885A5"/>
</svg>
