<svg width="48" height="48" viewBox="0 0 48 48" fill="none" xmlns="http://www.w3.org/2000/svg">
<g clip-path="url(#clip0_3009_1179)">
<path d="M30.3798 38.1287C30.7654 38.6844 30.6514 39.4502 30.1201 39.872C29.8898 40.0548 29.6005 40.1555 29.3057 40.1555H25.6356C24.7282 40.1555 24.7282 41.5624 25.6356 41.5624H29.3057C29.9169 41.5624 30.5167 41.3533 30.9948 40.9739C32.1055 40.0921 32.3431 38.49 31.5354 37.3266C31.0489 36.6253 29.8639 37.3858 30.3798 38.1287Z" fill="#333333"/>
<path d="M34.4916 18.4955L30.7115 22.2756C29.9801 22.0097 29.1088 22.2304 28.5927 22.8146L26.9005 24.7301C26.6364 24.418 26.2842 24.1871 25.8839 24.0708V10.9141C27.5568 10.5084 29.0364 9.49127 30.0157 8.0254C30.3225 7.56621 29.983 6.93115 29.4308 6.93115H26.0499V6.87162C26.0499 5.71924 26.4997 4.63577 27.3164 3.82071C27.7448 3.39331 27.4323 2.6193 26.8195 2.6193H24.5768V0.680555C24.5768 -0.226852 23.1699 -0.226852 23.1699 0.680555V2.6194H20.9273C20.3223 2.6194 19.9966 3.38787 20.4304 3.82081C21.2471 4.63587 21.6969 5.71934 21.6969 6.87171V6.93124H18.316C17.7638 6.93124 17.4244 7.56631 17.7311 8.02549C18.7104 9.49137 20.19 10.5085 21.8629 10.9142V13.859C21.8629 14.7664 23.2699 14.7664 23.2699 13.859V11.1068C23.6704 11.1205 24.0765 11.1205 24.477 11.1068V23.9856H23.2699V17.2356C23.2699 16.3282 21.8629 16.3282 21.8629 17.2356V24.0709C21.4357 24.195 21.0641 24.4502 20.795 24.7948L19.0459 22.8148C17.3901 20.94 14.4783 23.5109 16.1347 25.3864L19.7686 29.5C18.2645 30.1405 17.4614 31.4876 16.4944 32.7555C15.671 33.8351 14.716 34.8874 14.0214 36.0587C13.9573 36.0395 4.22388 36.0289 4.22388 36.0289C1.99666 36.0289 0.18457 37.841 0.18457 40.0683C0.18457 42.2955 1.99666 44.1076 4.22388 44.1076H5.65048C5.93454 44.8468 6.65004 45.3738 7.48807 45.3738H10.8647C11.7027 45.3738 12.4182 44.8468 12.7023 44.1076H13.8192C14.7266 44.1076 14.7266 42.7007 13.8192 42.7007H12.7023C12.4182 41.9615 11.7027 41.4345 10.8647 41.4345H7.48798C6.64995 41.4345 5.93444 41.9615 5.65038 42.7007H4.22388C2.77235 42.7007 1.59148 41.5198 1.59148 40.0683C1.59148 38.6168 2.77235 37.4358 4.22388 37.4358H13.4412C12.8877 39.4981 13.5699 41.7721 15.3395 43.1771C16.0982 43.7792 17.0073 44.1694 17.96 44.3129L17.2198 45.3003C16.4034 46.3892 17.2124 48 18.5725 48H25.6372C26.5446 48 26.5446 46.5931 25.6372 46.5931H18.5725C18.3424 46.5931 18.2064 46.3298 18.3454 46.1443L19.6714 44.3756H28.2181L29.6613 46.1348C29.8121 46.3186 29.6775 46.5932 29.4417 46.5932H29.0138C28.1064 46.5932 28.1064 48.0001 29.0138 48.0001H29.4417C30.1022 48.0001 30.6878 47.6296 30.9699 47.0332C31.2514 46.4378 31.1669 45.7515 30.7488 45.2424L30.0015 44.3315C30.9993 44.2043 31.9544 43.8055 32.7459 43.1771C34.5397 41.753 35.2172 39.4357 34.6218 37.3512C37.0103 37.0511 39.2421 35.9623 40.9506 34.2539L45.6003 29.6043C48.711 26.4935 48.5075 21.1224 45.2606 18.1663C42.3403 15.5075 37.2497 15.7167 34.4916 18.4955ZM22.3476 4.0263H25.399C24.9056 4.8828 24.6429 5.85705 24.6429 6.87162V6.93115H23.1038V6.87162C23.1038 5.85705 22.8411 4.8829 22.3476 4.0263ZM23.508 9.70409C22.1471 9.70409 20.858 9.20946 19.8614 8.33815H27.8853C26.8887 9.20946 25.5995 9.70409 24.2388 9.70409H23.508ZM7.48798 42.8413H10.8646C11.1749 42.8413 11.4274 43.0938 11.4274 43.4041C11.4274 43.7144 11.1749 43.9669 10.8646 43.9669H7.48798C7.17766 43.9669 6.9252 43.7144 6.9252 43.4041C6.9252 43.0937 7.17766 42.8413 7.48798 42.8413ZM27.5301 26.1427L29.6471 23.7461C30.1053 23.2276 30.9078 23.9365 30.4493 24.4548L27.6708 27.6C27.6221 27.2987 27.3219 26.378 27.5301 26.1427ZM22.4575 25.3925H25.2891C25.6365 25.3925 25.9289 25.6414 25.9844 25.9842L26.5324 29.3723H21.2145L21.7625 25.9842C21.8179 25.6413 22.1102 25.3925 22.4575 25.3925ZM17.1891 24.4549C16.7312 23.9365 17.5332 23.2273 17.9914 23.7462L20.1085 26.1429C20.4198 26.4952 20.1363 27.2269 20.0591 27.7037L17.1891 24.4549ZM31.8712 42.0751C31.1453 42.6513 30.2347 42.9686 29.3073 42.9686H18.7783C17.8508 42.9686 16.9402 42.6514 16.2143 42.0751C14.5 40.7141 14.1542 38.2574 15.4246 36.4782L19.1635 31.5759C19.544 31.077 20.1463 30.7793 20.7747 30.7793H27.3109C27.9394 30.7793 28.5416 31.077 28.922 31.5758L32.6609 36.4781C33.9314 38.2573 33.5855 40.7141 31.8712 42.0751ZM44.6054 28.6092L39.9558 33.2589C38.3689 34.8458 36.2636 35.8184 34.0271 35.9982C33.9552 35.8804 33.8799 35.7638 33.7982 35.6498C33.7942 35.6442 33.7902 35.6388 33.7861 35.6334L30.0407 30.7225C29.5304 30.0535 28.7845 29.599 27.9681 29.4379L27.9614 29.3963L31.5036 25.3863C31.8471 24.9976 32.0187 24.4983 31.9866 23.9805C31.9696 23.7054 31.8946 23.4432 31.7711 23.2058L35.4865 19.4904C37.942 17.0346 42.1495 17.0345 44.6054 19.4904C47.0617 21.9466 47.0614 26.1533 44.6054 28.6092Z" fill="#333333"/>
</g>
<defs>
<clipPath id="clip0_3009_1179">
<rect width="48" height="48" fill="white"/>
</clipPath>
</defs>
</svg>
