<svg width="48" height="48" viewBox="0 0 48 48" fill="none" xmlns="http://www.w3.org/2000/svg">
<path d="M19.5 18.75C19.9142 18.75 20.25 18.4142 20.25 18C20.25 17.5858 19.9142 17.25 19.5 17.25C19.0858 17.25 18.75 17.5858 18.75 18C18.75 18.4142 19.0858 18.75 19.5 18.75Z" fill="#333333"/>
<path d="M28.5 18.75C28.9142 18.75 29.25 18.4142 29.25 18C29.25 17.5858 28.9142 17.25 28.5 17.25C28.0858 17.25 27.75 17.5858 27.75 18C27.75 18.4142 28.0858 18.75 28.5 18.75Z" fill="#333333"/>
<path d="M24 25.5C23.1727 25.5 22.5 24.8273 22.5 24H21C21 25.6545 22.3455 27 24 27C25.6545 27 27 25.6545 27 24H25.5C25.5 24.8273 24.8273 25.5 24 25.5Z" fill="#333333"/>
<path d="M30.144 8.00025L31.2607 6.999C29.4105 4.93425 26.7638 3.75 24 3.75V5.25C26.3385 5.25 28.5773 6.25275 30.144 8.00025Z" fill="#333333"/>
<path d="M31.7808 10.7505L33.1945 10.2495C32.995 9.68704 32.7423 9.14029 32.4423 8.62354L31.1455 9.37653C31.3983 9.81304 31.612 10.2758 31.7808 10.7505Z" fill="#333333"/>
<path d="M9.80775 29.5585L11.193 28.9825C10.1895 26.569 8.895 22.6915 8.43 17.9268L6.9375 18.0723C7.41975 23.0215 8.7645 27.0498 9.80775 29.5585Z" fill="#333333"/>
<path d="M8.25879 14.9854L6.75879 15.0146C6.76929 15.5321 6.78954 16.0421 6.81879 16.5439L8.31579 16.4561C8.28729 15.9739 8.26779 15.4841 8.25879 14.9854Z" fill="#333333"/>
<path d="M36.8423 35.4668L29.148 32.3182C28.2982 31.971 27.75 31.1535 27.75 30.2355V29.697C29.6017 28.4175 31.1055 26.718 32.1427 24.7493H32.25C34.3177 24.7493 36 23.067 36 20.9993C36 20.0557 35.6362 19.1865 35.0385 18.519C36.1462 17.0828 36.75 15.3278 36.75 13.5C36.75 6.4695 31.0305 0.75 24 0.75C21.0562 0.75 18.3503 1.7625 16.1903 3.444C15.5017 3.1545 14.85 3 14.25 3C10.35 3 3.75 5.36925 3.75 14.25C3.75 23.385 6.7455 30.3915 8.24175 33.3232C7.77375 34.1077 7.5 35.0213 7.5 36C7.5 36.5617 7.59075 37.1017 7.755 37.6095C5.21175 39.8722 3.75 43.074 3.75 46.5V47.25H44.25V46.5C44.25 41.6385 41.3423 37.3073 36.8423 35.4668ZM38.217 37.8982C37.3305 40.4408 36.843 43.0755 36.7665 45.75H11.2215C11.1735 44.0805 10.977 42.4207 10.611 40.7895C11.265 41.0828 11.988 41.25 12.75 41.25H14.0723L14.394 42.75H33.6067L34.983 36.3263L36.2745 36.855C36.9675 37.1377 37.617 37.4888 38.217 37.8982ZM20.9955 34.0252L22.8435 35.3452L20.4915 37.6973L20.3483 37.3747C20.7615 36.501 21 35.529 21 34.5C21 34.3372 20.997 34.1835 20.9955 34.0252ZM19.3762 38.88L20.0085 40.3027L23.25 37.0612V41.25H15.6068L15.5782 41.1173C17.0865 40.815 18.4117 40.0065 19.3762 38.88ZM24.75 37.0612L27.9915 40.3027L30.5625 34.518L33.5723 35.7495L32.3933 41.25H24.75V37.0612ZM29.1742 33.9495L27.5085 37.6973L25.1565 35.3452L27.9382 33.3585C28.14 33.4912 28.3507 33.6128 28.5802 33.7065L29.1742 33.9495ZM26.8597 32.2853L24 34.3283L20.9363 32.1398C20.8935 31.3785 20.8305 30.675 20.7428 30.033C21.6735 30.6187 22.6845 31.1018 23.763 31.4618L24 31.5405L24.237 31.4618C24.9473 31.2248 25.6283 30.9353 26.2762 30.597C26.3355 31.2098 26.535 31.7873 26.8597 32.2853ZM24 29.9565C19.0545 28.1978 15.75 23.5305 15.75 18.2633V17.2455C18.723 17.1623 21.5362 15.8467 23.5087 13.608C23.544 13.5675 23.619 13.5 23.7233 13.5C23.8755 13.5 24 13.6245 24 13.7767V17.25H24.8767C27.6465 17.25 30.2452 15.8933 31.8293 13.6215C31.8547 13.5848 31.9245 13.5 32.0272 13.5C32.1502 13.5 32.25 13.5998 32.25 13.7228V18.2633C32.25 23.5305 28.9455 28.1985 24 29.9565ZM14.2913 19.3043C14.391 20.6445 14.688 21.9368 15.1462 23.1578C14.1997 22.8915 13.5 22.0305 13.5 21C13.5 20.3302 13.8038 19.7197 14.2913 19.3043ZM32.8538 23.1578C33.312 21.9368 33.609 20.6445 33.7087 19.3043C34.1962 19.7197 34.5 20.3302 34.5 21C34.5 22.0305 33.8003 22.8915 32.8538 23.1578ZM35.25 13.5C35.25 15 34.7513 16.4407 33.8377 17.6182C33.8085 17.6047 33.78 17.5898 33.75 17.5763V13.7228C33.75 12.7733 32.9767 12 32.0272 12C31.4655 12 30.9315 12.2857 30.5985 12.7642C29.415 14.4622 27.5415 15.5392 25.5 15.7222V13.7767C25.5 12.7972 24.7028 12 23.7233 12C23.2162 12 22.7273 12.225 22.3822 12.6173C20.6287 14.6085 18.1012 15.75 15.4478 15.75H14.25V17.577C14.22 17.5898 14.1915 17.6047 14.1622 17.6182C13.2487 16.4415 12.75 15.0007 12.75 13.5C12.75 7.29675 17.7968 2.25 24 2.25C30.2033 2.25 35.25 7.29675 35.25 13.5ZM14.25 4.5C14.4517 4.5 14.67 4.53375 14.8988 4.58775C12.645 6.88875 11.25 10.0328 11.25 13.5C11.25 15.3278 11.8537 17.0835 12.9615 18.519C12.3637 19.1873 12 20.0565 12 21C12 23.0677 13.6823 24.75 15.75 24.75H15.8573C16.6447 26.244 17.697 27.5872 18.9697 28.707C19.3252 30.1485 19.5 32.0438 19.5 34.5C19.5 37.395 17.145 39.75 14.25 39.75H12.75C10.6823 39.75 9 38.0677 9 36C9 33.9323 10.6823 32.25 12.75 32.25C14.8177 32.25 16.5 33.9323 16.5 36V36.75H18V36C18 33.105 15.645 30.75 12.75 30.75C11.424 30.75 10.215 31.248 9.29025 32.0618C7.785 28.9605 5.25 22.5135 5.25 14.25C5.25 4.77375 13.329 4.5 14.25 4.5ZM8.44725 38.9993C8.51625 39.0983 8.58825 39.195 8.66325 39.288C9.3075 41.3918 9.65475 43.5615 9.7215 45.75H5.277C5.46 43.1745 6.58875 40.7858 8.44725 38.9993ZM38.2665 45.75C38.3377 43.4205 38.7337 41.1225 39.4575 38.8958C41.346 40.6613 42.5348 43.0897 42.723 45.75H38.2665Z" fill="#333333"/>
</svg>
