<svg width="48" height="48" viewBox="0 0 48 48" fill="none" xmlns="http://www.w3.org/2000/svg">
<g clip-path="url(#clip0_3009_1915)">
<path d="M13.5079 2.66602C9.67819 2.66602 6.5625 5.78161 6.5625 9.61139C6.5625 13.4411 9.67819 16.5568 13.5079 16.5568C17.3376 16.5568 20.4532 13.4412 20.4532 9.61139C20.4532 5.78161 17.3376 2.66602 13.5079 2.66602ZM13.5079 15.0133C10.5293 15.0133 8.10591 12.59 8.10591 9.6113C8.10591 6.63258 10.5293 4.20933 13.5079 4.20933C16.4865 4.20933 18.9098 6.63258 18.9098 9.6113C18.9098 12.59 16.4864 15.0133 13.5079 15.0133Z" fill="white"/>
<path d="M13.4144 17.9984L8.93848 16.7285V23.073L13.4144 21.8913L17.8903 23.073V16.7285L13.4144 17.9984ZM16.3469 21.0693L13.4144 20.2951L10.4819 21.0693V18.7708L13.4144 19.6027L16.3469 18.7708V21.0693Z" fill="white"/>
<path d="M34.6651 20.0422L29.7776 24.9295L25.2113 20.3631C24.288 19.44 23.0609 18.9316 21.7552 18.9316C21.7552 18.9316 21.7545 18.9316 21.7542 18.9316L19.5912 18.9321L19.5916 20.4755L21.7545 20.475H21.7553C22.6485 20.475 23.4883 20.8229 24.1198 21.4545L29.7774 27.1121L35.304 21.5855H38.5425L29.7008 31.4312L22.6778 25.0731V46.4568H7.24378V37.4623H8.77013V44.562H18.0477V37.4623H21.9063V31.4429H18.0477V30.6713H8.77013V31.4429H7.24388V26.8128H5.70047V32.9864H8.77013V35.919H7.24388H6.47222H3.102V23.8224C3.102 21.9789 4.60181 20.4788 6.44531 20.4783L6.44494 18.9349C3.75056 18.9356 1.55859 21.128 1.55859 23.8224V37.4623H5.70056V48.0003H24.2214V28.5525L29.8139 33.6155L42.0032 20.0422H34.6651ZM18.0477 32.9864H20.3629V35.919H18.0477V32.9864ZM10.3135 32.2148H16.5043V43.0186H10.3135V32.2148Z" fill="white"/>
<path d="M45.2367 17.6024C44.8656 13.2132 41.3593 9.70664 36.9784 9.34973V8.0332H35.435V9.35592C31.0861 9.74358 27.6144 13.2362 27.2452 17.6024H25.9688V19.1458H27.2121H45.2699H46.4447V17.6024H45.2367ZM28.7946 17.6024C29.181 13.8219 32.3731 10.8629 36.2408 10.8629C40.1086 10.8629 43.3007 13.822 43.6872 17.6024H28.7946Z" fill="white"/>
<path d="M30.75 16.781H32.2934C32.2934 15.1007 33.655 13.7338 35.3287 13.7338V12.1904C32.8041 12.1904 30.75 14.2497 30.75 16.781Z" fill="white"/>
<path d="M45.8256 3.24023H44.2822V4.78364H45.8256V3.24023Z" fill="white"/>
<path d="M45.8256 9.41602H44.2822V10.8051H45.8256V9.41602Z" fill="white"/>
<path d="M45.8256 6.32812H44.2822V7.87153H45.8256V6.32812Z" fill="white"/>
<path d="M42.893 4.78418H41.3496V6.32759H42.893V4.78418Z" fill="white"/>
<path d="M42.893 1.69922H41.3496V3.24262H42.893V1.69922Z" fill="white"/>
<path d="M39.8081 3.08789H38.2646V4.6313H39.8081V3.08789Z" fill="white"/>
<path d="M39.8081 0H38.2646V1.54341H39.8081V0Z" fill="white"/>
</g>
<defs>
<clipPath id="clip0_3009_1915">
<rect width="48" height="48" fill="white"/>
</clipPath>
</defs>
</svg>
