<svg width="16" height="16" viewBox="0 0 16 16" fill="none" xmlns="http://www.w3.org/2000/svg">
<path d="M14.0007 2H2.00065C1.63246 2 1.33398 2.29848 1.33398 2.66667V4.66667C1.33398 5.03486 1.63246 5.33333 2.00065 5.33333H14.0007C14.3688 5.33333 14.6673 5.03486 14.6673 4.66667V2.66667C14.6673 2.29848 14.3688 2 14.0007 2Z" stroke="#8B8B8B" stroke-width="1.13" stroke-linecap="round" stroke-linejoin="round"/>
<path d="M2.66602 5.33334V12.6667C2.66602 13.0203 2.80649 13.3594 3.05654 13.6095C3.30659 13.8595 3.64573 14 3.99935 14H11.9993C12.353 14 12.6921 13.8595 12.9422 13.6095C13.1922 13.3594 13.3327 13.0203 13.3327 12.6667V5.33334" stroke="#8B8B8B" stroke-width="1.13" stroke-linecap="round" stroke-linejoin="round"/>
<path d="M6.66602 8H9.33268" stroke="#8B8B8B" stroke-width="1.13" stroke-linecap="round" stroke-linejoin="round"/>
</svg>
