<svg width="24" height="24" viewBox="0 0 24 24" fill="none" xmlns="http://www.w3.org/2000/svg">
<path d="M12 22.0001L14 21.0001L16 22.0001L18 21.0001L20 22.0001V2.00006L18 3.00006L16 2.00006L14 3.00006L12 2.00006L10 3.00006L8 2.00006L6 3.00006L4 2.00006V12.0001" stroke="#333333" stroke-width="1.13" stroke-linecap="round" stroke-linejoin="round"/>
<path d="M12.5 8.00006H8" stroke="#333333" stroke-width="1.13" stroke-linecap="round" stroke-linejoin="round"/>
<path d="M16.5 8.00006H16" stroke="#333333" stroke-width="1.13" stroke-linecap="round" stroke-linejoin="round"/>
<path d="M10.4 12.6001C10.7978 12.2023 11.3374 11.9788 11.9 11.9788C12.4626 11.9788 13.0022 12.2023 13.4 12.6001C13.7978 12.9979 14.0213 13.5375 14.0213 14.1001C14.0213 14.6627 13.7978 15.2023 13.4 15.6001L8 21.0001L4 22.0001L5 18.0001L10.4 12.6001Z" stroke="#333333" stroke-width="1.13" stroke-linecap="round" stroke-linejoin="round"/>
</svg>
