<svg width="16" height="16" viewBox="0 0 16 16" fill="none" xmlns="http://www.w3.org/2000/svg">
<g clip-path="url(#clip0_3009_9193)">
<path d="M11.3333 1.99998C11.5031 1.79933 11.7131 1.63601 11.95 1.52043C12.1869 1.40485 12.4454 1.33953 12.7091 1.32865C12.9728 1.31777 13.2359 1.36156 13.4816 1.45723C13.7273 1.55291 13.9502 1.69836 14.1362 1.88432C14.3221 2.07029 14.4671 2.29268 14.5617 2.53734C14.6563 2.78199 14.6985 3.04353 14.6857 3.3053C14.6729 3.56706 14.6053 3.8233 14.4872 4.05769C14.3692 4.29207 14.2032 4.49947 14 4.66664L4.99998 13.6666L1.33331 14.6666L2.33331 11L11.3333 1.99998Z" stroke="#8B8B8B" stroke-width="1.13" stroke-linecap="round" stroke-linejoin="round"/>
<path d="M10 3.33337L12.6667 6.00004" stroke="#8B8B8B" stroke-width="1.13" stroke-linecap="round" stroke-linejoin="round"/>
</g>
<defs>
<clipPath id="clip0_3009_9193">
<rect width="16" height="16" fill="white"/>
</clipPath>
</defs>
</svg>
