<svg width="20" height="20" viewBox="0 0 20 20" fill="none" xmlns="http://www.w3.org/2000/svg">
<path fill-rule="evenodd" clip-rule="evenodd" d="M2.53503 14C2.53503 13.7432 2.74322 13.535 3.00003 13.535L13 13.535C13.2568 13.535 13.465 13.7432 13.465 14C13.465 14.2568 13.2568 14.465 13 14.465L3.00003 14.465C2.74322 14.465 2.53503 14.2568 2.53503 14Z" fill="#182548"/>
<path fill-rule="evenodd" clip-rule="evenodd" d="M2.53503 11C2.53503 10.7432 2.74322 10.535 3.00003 10.535L17 10.535C17.2568 10.535 17.465 10.7432 17.465 11C17.465 11.2568 17.2568 11.465 17 11.465L3.00003 11.465C2.74322 11.465 2.53503 11.2568 2.53503 11Z" fill="#182548"/>
<path fill-rule="evenodd" clip-rule="evenodd" d="M14.535 14C14.535 13.7432 14.7432 13.535 15 13.535H17C17.2568 13.535 17.465 13.7432 17.465 14C17.465 14.2568 17.2568 14.465 17 14.465H15C14.7432 14.465 14.535 14.2568 14.535 14Z" fill="#182548"/>
<path fill-rule="evenodd" clip-rule="evenodd" d="M14.535 17C14.535 16.7432 14.7432 16.535 15 16.535H17C17.2568 16.535 17.465 16.7432 17.465 17C17.465 17.2568 17.2568 17.465 17 17.465H15C14.7432 17.465 14.535 17.2568 14.535 17Z" fill="#182548"/>
<path fill-rule="evenodd" clip-rule="evenodd" d="M2.53503 17C2.53503 16.7432 2.74322 16.535 3.00003 16.535L13 16.535C13.2568 16.535 13.465 16.7432 13.465 17C13.465 17.2568 13.2568 17.465 13 17.465L3.00003 17.465C2.74322 17.465 2.53503 17.2568 2.53503 17Z" fill="#182548"/>
<path fill-rule="evenodd" clip-rule="evenodd" d="M10 5.465C6.94314 5.465 4.46503 7.94311 4.46503 11H3.53503C3.53503 7.42948 6.42951 4.535 10 4.535C13.5706 4.535 16.465 7.42948 16.465 11H15.535C15.535 7.94311 13.0569 5.465 10 5.465Z" fill="#182548"/>
<path fill-rule="evenodd" clip-rule="evenodd" d="M8.93098 7.11631C9.02735 7.35436 8.91249 7.62545 8.67444 7.72182C7.97812 8.00369 7.39129 8.50162 6.99782 9.13271C6.86195 9.35064 6.57514 9.41716 6.35722 9.28129C6.13929 9.14542 6.07277 8.85861 6.20864 8.64069C6.70493 7.84465 7.44504 7.21618 8.32547 6.85977C8.56352 6.76341 8.83462 6.87826 8.93098 7.11631Z" fill="#182548"/>
<path fill-rule="evenodd" clip-rule="evenodd" d="M10 4.465C9.70456 4.465 9.46503 4.70453 9.46503 5H8.53503C8.53503 4.19091 9.19094 3.535 10 3.535C10.8091 3.535 11.465 4.19091 11.465 5H10.535C10.535 4.70453 10.2955 4.465 10 4.465Z" fill="#182548"/>
</svg>
