<svg width="20" height="20" viewBox="0 0 20 20" fill="none" xmlns="http://www.w3.org/2000/svg">
<path fill-rule="evenodd" clip-rule="evenodd" d="M6.97 12.94C6.1592 12.94 5.38594 13.247 4.81926 13.7867C4.25337 14.3256 3.94 15.0515 3.94 15.8033C3.94 16.1131 4.069 16.4151 4.3067 16.6415C4.54518 16.8686 4.87332 17 5.22 17H15.72C16.0667 17 16.3948 16.8686 16.6333 16.6415C16.871 16.4151 17 16.1131 17 15.8033C17 15.0515 16.6866 14.3256 16.1207 13.7867C15.5541 13.247 14.7808 12.94 13.97 12.94H6.97ZM4.17099 13.106C4.91707 12.3954 5.92429 12 6.97 12H13.97C15.0157 12 16.0229 12.3954 16.769 13.106C17.5159 13.8173 17.94 14.787 17.94 15.8033C17.94 16.3776 17.7002 16.9235 17.2816 17.3222C16.8637 17.7202 16.3016 17.94 15.72 17.94H5.22C4.63842 17.94 4.07632 17.7202 3.65843 17.3222C3.23975 16.9235 3 16.3776 3 15.8033C3 14.787 3.42413 13.8173 4.17099 13.106Z" fill="#7885A5"/>
<path fill-rule="evenodd" clip-rule="evenodd" d="M10.47 3.94C9.07272 3.94 7.94 5.07272 7.94 6.47C7.94 7.86728 9.07272 9 10.47 9C11.8673 9 13 7.86728 13 6.47C13 5.07272 11.8673 3.94 10.47 3.94ZM7 6.47C7 4.55357 8.55357 3 10.47 3C12.3864 3 13.94 4.55357 13.94 6.47C13.94 8.38643 12.3864 9.94 10.47 9.94C8.55357 9.94 7 8.38643 7 6.47Z" fill="#7885A5"/>
</svg>
