<svg width="64" height="48" viewBox="0 0 64 48" fill="none" xmlns="http://www.w3.org/2000/svg">
<path fill-rule="evenodd" clip-rule="evenodd" d="M59.8496 4.96875C59.934 4.96875 60.1496 5.09062 60.6184 5.5125L60.5902 15.3469C60.5621 24.9937 60.5621 25.1719 60.3746 25.3594C60.1965 25.5375 60.0465 25.5469 57.3559 25.5656C55.3871 25.5844 54.384 25.5562 54.0559 25.4812C53.7746 25.4156 53.484 25.2562 53.3246 25.1062C53.0809 24.8531 53.0715 24.7969 53.0715 23.925C53.0715 23.4281 53.1371 22.3406 53.2121 21.5156C53.2871 20.6906 53.4559 19.3781 53.5871 18.6094C53.7184 17.8313 53.9621 16.6125 54.1402 15.8906C54.3184 15.1687 54.6371 14.0531 54.8527 13.4062C55.0777 12.7594 55.4434 11.7937 55.6684 11.25C55.9027 10.7063 56.3152 9.84375 56.5871 9.32812C56.859 8.8125 57.3746 7.95 57.7309 7.40625C58.0871 6.8625 58.6121 6.15 58.884 5.8125C59.1652 5.475 59.4559 5.15625 59.5402 5.09062C59.6152 5.025 59.7559 4.96875 59.8402 4.96875H59.8496ZM4.80273 6.5625C4.94336 6.5625 5.15898 6.65625 5.49648 6.98438L5.48711 14.0625H6.70586V6.9375L6.96836 6.75C7.10898 6.6375 7.31523 6.55313 7.43711 6.5625C7.54961 6.5625 7.74648 6.66562 8.11211 7.03125V14.0625H9.04961V10.5C9.04961 7.05937 9.05898 6.92813 9.23711 6.75C9.34023 6.64688 9.54648 6.5625 9.70586 6.5625C9.88398 6.5625 10.0715 6.64688 10.4559 7.03125V14.0625H11.5809L11.6277 7.05L11.8621 6.80625C12.0027 6.65625 12.1996 6.5625 12.359 6.5625C12.4996 6.5625 12.7152 6.66562 13.0809 7.03125V11.175C13.0809 14.5875 13.0527 15.4406 12.9309 15.9375C12.8559 16.275 12.6496 16.8 12.4902 17.1C12.3215 17.4 12.059 17.8031 11.8996 17.9906C11.7402 18.1781 11.384 18.4969 11.1027 18.7031C10.8309 18.9094 10.3246 19.1719 9.37773 19.4906L9.33086 25.9688H9.73398C9.94961 25.9688 10.2215 26.0344 10.3434 26.1094C10.4559 26.1844 10.5871 26.4094 10.634 26.5969C10.6809 26.7938 10.9621 29.8687 11.2621 33.4219C11.8059 39.8531 11.8059 39.8906 11.6465 40.5C11.5527 40.8375 11.3371 41.325 11.1684 41.5781C10.9902 41.8406 10.6246 42.1969 10.3434 42.3938C10.0715 42.5813 9.61211 42.8063 9.33086 42.8906C9.01211 42.9938 8.65586 43.0406 8.39336 43.0125C8.15898 42.9844 7.71836 42.8625 7.40898 42.7406C7.04336 42.6 6.69648 42.3656 6.40586 42.075C6.15273 41.8312 5.84336 41.3812 5.70273 41.0906C5.49648 40.6594 5.44023 40.3875 5.41211 39.75C5.40273 39.3094 5.63711 36.1406 5.93711 32.625C6.49023 26.3719 6.49961 26.2969 6.71523 26.1281C6.86523 26.0156 7.09961 25.9594 7.83086 25.9688V19.5L7.29648 19.3406C6.99648 19.2469 6.51836 19.0219 6.23711 18.8344C5.95586 18.6562 5.51523 18.2719 5.27148 17.9906C5.01836 17.7094 4.70898 17.2781 4.58711 17.0156C4.46523 16.7625 4.27773 16.2281 4.17461 15.8438C4.00586 15.1969 3.98711 14.8312 4.00586 7.14375L4.26836 6.85312C4.44648 6.65625 4.61523 6.5625 4.80273 6.5625ZM60.4871 27.0469L60.4684 33.3281C60.4402 39.0375 60.4215 39.6375 60.2809 39.9375C60.1871 40.1156 59.9621 40.425 59.7652 40.6219C59.5684 40.8187 59.259 41.0438 59.0809 41.1281C58.8934 41.2219 58.4434 41.3062 58.0496 41.325C57.4496 41.3531 57.2809 41.325 56.8777 41.1281C56.6152 40.9969 56.2496 40.7062 56.0527 40.4906C55.8371 40.2375 55.6402 39.8719 55.5465 39.5625C55.4059 39.0656 55.4152 38.85 55.959 33.1125C56.3902 28.4813 56.5402 27.15 56.6527 27.0844C56.7277 27.0281 57.5996 27.0094 60.4871 27.0469ZM57.3559 38.6906C57.384 38.8406 57.4777 39.0281 57.5621 39.1125C57.6465 39.1969 57.8246 39.3 57.9559 39.3281C58.1246 39.375 58.2652 39.3281 58.4621 39.1687C58.6684 39.0094 58.734 38.8781 58.734 38.625C58.734 38.3906 58.6684 38.2406 58.4809 38.0813C58.3496 37.9688 58.1527 37.875 58.0402 37.875C57.9371 37.875 57.7215 38.0062 57.5715 38.1562C57.3652 38.3719 57.309 38.4938 57.3559 38.6906Z" fill="#2F80ED"/>
<path fill-rule="evenodd" clip-rule="evenodd" d="M32.5 41C41.0604 41 48 34.0604 48 25.5C48 16.9396 41.0604 10 32.5 10C23.9396 10 17 16.9396 17 25.5C17 34.0604 23.9396 41 32.5 41ZM42.9999 25.5C42.9999 31.299 38.2989 36 32.4999 36C26.701 36 21.9999 31.299 21.9999 25.5C21.9999 19.701 26.701 15 32.4999 15C38.2989 15 42.9999 19.701 42.9999 25.5ZM41.9999 25.5C41.9999 30.7467 37.7467 35 32.4999 35C27.2532 35 22.9999 30.7467 22.9999 25.5C22.9999 20.2533 27.2532 16 32.4999 16C37.7467 16 41.9999 20.2533 41.9999 25.5Z" fill="#333333"/>
</svg>
