<svg width="76" height="19" viewBox="0 0 76 19" fill="none" xmlns="http://www.w3.org/2000/svg">
<path d="M0.197344 18V0.719999H1.96134V16.308H10.1693V18H0.197344ZM23.7424 18.36C22.0224 18.36 20.5704 17.98 19.3864 17.22C18.2024 16.452 17.3064 15.392 16.6984 14.04C16.0904 12.688 15.7864 11.128 15.7864 9.36C15.7864 7.592 16.0904 6.032 16.6984 4.68C17.3064 3.328 18.2024 2.272 19.3864 1.512C20.5704 0.743999 22.0224 0.36 23.7424 0.36C25.4704 0.36 26.9224 0.743999 28.0984 1.512C29.2824 2.272 30.1784 3.328 30.7864 4.68C31.4024 6.032 31.7104 7.592 31.7104 9.36C31.7104 11.128 31.4024 12.688 30.7864 14.04C30.1784 15.392 29.2824 16.452 28.0984 17.22C26.9224 17.98 25.4704 18.36 23.7424 18.36ZM23.7424 16.668C25.0944 16.668 26.2224 16.36 27.1264 15.744C28.0304 15.128 28.7064 14.272 29.1544 13.176C29.6104 12.072 29.8384 10.8 29.8384 9.36C29.8384 7.92 29.6104 6.652 29.1544 5.556C28.7064 4.46 28.0304 3.604 27.1264 2.988C26.2224 2.372 25.0944 2.06 23.7424 2.052C22.3904 2.052 21.2664 2.36 20.3704 2.976C19.4744 3.592 18.7984 4.452 18.3424 5.556C17.8944 6.652 17.6664 7.92 17.6584 9.36C17.6504 10.8 17.8704 12.068 18.3184 13.164C18.7744 14.252 19.4544 15.108 20.3584 15.732C21.2624 16.348 22.3904 16.66 23.7424 16.668ZM46.0376 18.36C44.8216 18.36 43.7256 18.148 42.7496 17.724C41.7736 17.3 40.9416 16.696 40.2536 15.912C39.5736 15.128 39.0536 14.184 38.6936 13.08C38.3336 11.968 38.1536 10.728 38.1536 9.36C38.1536 7.552 38.4656 5.976 39.0896 4.632C39.7216 3.28 40.6256 2.232 41.8016 1.488C42.9776 0.743999 44.3896 0.371999 46.0376 0.371999C47.8776 0.371999 49.3736 0.803999 50.5256 1.668C51.6856 2.524 52.4936 3.676 52.9496 5.124L51.1736 5.556C50.7976 4.5 50.1776 3.656 49.3136 3.024C48.4576 2.392 47.3896 2.076 46.1096 2.076C44.7576 2.068 43.6336 2.372 42.7376 2.988C41.8416 3.596 41.1656 4.452 40.7096 5.556C40.2616 6.652 40.0336 7.92 40.0256 9.36C40.0176 10.8 40.2376 12.068 40.6856 13.164C41.1416 14.252 41.8216 15.108 42.7256 15.732C43.6296 16.348 44.7576 16.66 46.1096 16.668C47.3496 16.668 48.3736 16.428 49.1816 15.948C49.9896 15.468 50.6016 14.78 51.0176 13.884C51.4416 12.988 51.6816 11.928 51.7376 10.704H47.7536V9.192H53.5856C53.6096 9.376 53.6216 9.572 53.6216 9.78C53.6296 9.98 53.6336 10.124 53.6336 10.212C53.6336 11.772 53.3536 13.168 52.7936 14.4C52.2336 15.624 51.3896 16.592 50.2616 17.304C49.1416 18.008 47.7336 18.36 46.0376 18.36ZM68.0315 18.36C66.3115 18.36 64.8595 17.98 63.6755 17.22C62.4915 16.452 61.5955 15.392 60.9875 14.04C60.3795 12.688 60.0755 11.128 60.0755 9.36C60.0755 7.592 60.3795 6.032 60.9875 4.68C61.5955 3.328 62.4915 2.272 63.6755 1.512C64.8595 0.743999 66.3115 0.36 68.0315 0.36C69.7595 0.36 71.2115 0.743999 72.3875 1.512C73.5715 2.272 74.4675 3.328 75.0755 4.68C75.6915 6.032 75.9995 7.592 75.9995 9.36C75.9995 11.128 75.6915 12.688 75.0755 14.04C74.4675 15.392 73.5715 16.452 72.3875 17.22C71.2115 17.98 69.7595 18.36 68.0315 18.36ZM68.0315 16.668C69.3835 16.668 70.5115 16.36 71.4155 15.744C72.3195 15.128 72.9955 14.272 73.4435 13.176C73.8995 12.072 74.1275 10.8 74.1275 9.36C74.1275 7.92 73.8995 6.652 73.4435 5.556C72.9955 4.46 72.3195 3.604 71.4155 2.988C70.5115 2.372 69.3835 2.06 68.0315 2.052C66.6795 2.052 65.5555 2.36 64.6595 2.976C63.7635 3.592 63.0875 4.452 62.6315 5.556C62.1835 6.652 61.9555 7.92 61.9475 9.36C61.9395 10.8 62.1595 12.068 62.6075 13.164C63.0635 14.252 63.7435 15.108 64.6475 15.732C65.5515 16.348 66.6795 16.66 68.0315 16.668Z" fill="#182548"/>
</svg>
