<svg width="40" height="40" viewBox="0 0 40 40" fill="none" xmlns="http://www.w3.org/2000/svg">
<circle cx="20" cy="20" r="12" fill="#E02828"/>
<g clip-path="url(#clip0_3001_1190)">
<path d="M16 17.3333C16 16.2724 16.4214 15.255 17.1716 14.5049C17.9217 13.7547 18.9391 13.3333 20 13.3333C21.0609 13.3333 22.0783 13.7547 22.8284 14.5049C23.5786 15.255 24 16.2724 24 17.3333C24 22 26 23.3333 26 23.3333H14C14 23.3333 16 22 16 17.3333Z" stroke="white" stroke-width="1.13" stroke-linecap="round" stroke-linejoin="round"/>
<path d="M18.8667 26C18.9783 26.203 19.1423 26.3722 19.3417 26.4901C19.5411 26.608 19.7684 26.6702 20 26.6702C20.2316 26.6702 20.459 26.608 20.6584 26.4901C20.8577 26.3722 21.0218 26.203 21.1334 26" stroke="white" stroke-width="1.13" stroke-linecap="round" stroke-linejoin="round"/>
<path d="M14.6667 13.3333C13.8667 14.4666 13.3334 15.8 13.3334 17.3333" stroke="white" stroke-width="1.13" stroke-linecap="round" stroke-linejoin="round"/>
<path d="M26.6667 17.3333C26.6667 15.8 26.1334 14.4666 25.3334 13.3333" stroke="white" stroke-width="1.13" stroke-linecap="round" stroke-linejoin="round"/>
</g>
<defs>
<clipPath id="clip0_3001_1190">
<rect width="16" height="16" fill="white" transform="translate(12 12)"/>
</clipPath>
</defs>
</svg>
