<svg width="32" height="32" viewBox="0 0 32 32" fill="none" xmlns="http://www.w3.org/2000/svg">
<path fill-rule="evenodd" clip-rule="evenodd" d="M5.875 26.125C8.29125 26.125 10.25 24.1662 10.25 21.75C10.25 19.3338 8.29125 17.375 5.875 17.375C3.45875 17.375 1.5 19.3338 1.5 21.75C1.5 24.1662 3.45875 26.125 5.875 26.125ZM5.875 27.625C9.11967 27.625 11.75 24.9947 11.75 21.75C11.75 18.5053 9.11967 15.875 5.875 15.875C2.63033 15.875 0 18.5053 0 21.75C0 24.9947 2.63033 27.625 5.875 27.625Z" fill="#333333"/>
<path fill-rule="evenodd" clip-rule="evenodd" d="M10.0628 0H7.21281L7.03781 0.16875C6.93781 0.275 6.84406 0.4625 6.81281 0.625C6.78347 0.783451 6.75964 5.77523 6.75684 13.8438C6.75684 14.8438 8.19407 14.875 8.19407 13.8438V1.375H9.13156V1.875C9.13156 2.21875 9.16906 2.48125 9.25031 2.70625C9.32531 2.89375 9.49406 3.15625 9.64406 3.3125C9.79406 3.46875 10.0566 3.66875 10.2253 3.75C10.4753 3.875 10.6316 3.90625 11.0378 3.90625C11.4066 3.90625 11.6066 3.875 11.8191 3.78125C11.9753 3.70625 12.2191 3.54375 12.3691 3.40625C12.5191 3.26875 12.7128 3.00625 12.8066 2.8125C12.9378 2.5375 12.9753 2.3625 13.0066 1.375H14.0691V1.83125C14.0628 2.1 14.1128 2.425 14.1753 2.625C14.2441 2.8375 14.3941 3.08125 14.5691 3.275C14.7253 3.44375 14.9878 3.65625 15.1628 3.74375C15.4253 3.88125 15.5566 3.90625 16.0066 3.90625C16.4566 3.90625 16.5878 3.88125 16.8503 3.74375C17.0191 3.65625 17.2878 3.44375 17.4441 3.275C17.6191 3.08125 17.7628 2.8375 17.8316 2.625C17.9003 2.425 17.9441 2.1 17.9441 1.375H19.0066L19.0253 1.925C19.0378 2.3625 19.0753 2.5375 19.2066 2.8125C19.2941 3.00625 19.4941 3.26875 19.6378 3.40625C19.7878 3.54375 20.0378 3.70625 20.1941 3.78125C20.4003 3.875 20.6003 3.90625 20.9753 3.90625C21.3816 3.90625 21.5316 3.875 21.7816 3.75C21.9503 3.66875 22.2128 3.46875 22.3628 3.3125C22.5191 3.15625 22.6878 2.89375 22.7566 2.70625C22.8441 2.48125 22.8816 2.21875 22.8816 1.375H23.8191V30.625H22.8816V29.8937C22.8816 29.2062 22.8691 29.1375 22.7003 28.7812C22.6003 28.575 22.4066 28.3125 22.2753 28.1938C22.1441 28.075 21.8941 27.9187 21.7253 27.8375C21.4941 27.7312 21.3003 27.6938 20.9878 27.6938C20.7253 27.6938 20.4441 27.7375 20.2378 27.8125C20.0503 27.8813 19.7941 28.05 19.6316 28.2062C19.4753 28.3562 19.2816 28.6187 19.1941 28.7875C19.0628 29.0562 19.0378 29.2 19.0066 30.625H17.9441V29.9375C17.9441 29.4 17.9128 29.1812 17.8128 28.925C17.7441 28.7437 17.5941 28.4813 17.4816 28.3438C17.3691 28.2062 17.1191 28.0125 16.9378 27.9062C16.6253 27.7375 16.5503 27.7188 16.0066 27.7188C15.4628 27.7188 15.3816 27.7375 15.0753 27.9062C14.8878 28.0125 14.6441 28.2062 14.5253 28.3438C14.4066 28.4813 14.2566 28.7437 14.1878 28.925C14.0941 29.175 14.0691 29.4125 14.0691 30.625H13.0066L12.9878 29.8625C12.9691 29.2 12.9503 29.0562 12.8128 28.7875C12.7316 28.6187 12.5566 28.375 12.4253 28.2437C12.3003 28.1125 12.0753 27.9438 11.9253 27.8687C11.7441 27.775 11.5066 27.725 11.1628 27.7C10.7253 27.675 10.6191 27.6938 10.3191 27.825C10.1316 27.9125 9.86906 28.075 9.73156 28.1938C9.60031 28.3125 9.41281 28.575 9.31281 28.7812C9.13781 29.1375 9.12531 29.2062 9.13156 30.625L8.19407 30.6313V29.3781C8.19407 28.5312 6.7791 28.6861 6.7791 29.4125C6.78781 30.8825 6.79905 31.3489 6.81281 31.4062C6.84406 31.5438 6.95031 31.7312 7.04406 31.8312L7.21906 32H10.0316L10.4066 31.6187C10.4691 29.4125 10.4753 29.3813 10.6253 29.225C10.7128 29.1313 10.8566 29.05 10.9503 29.0312C11.0503 29.0125 11.2066 29.0438 11.3128 29.0938C11.4128 29.1437 11.5253 29.2437 11.5628 29.3125C11.6003 29.3813 11.6253 29.875 11.6253 30.4062C11.6253 31.0688 11.6503 31.4375 11.7066 31.575C11.7566 31.6875 11.8691 31.8313 11.9566 31.8875C12.1066 31.9875 12.3003 32 13.5566 32H14.9878L15.3753 31.625C15.4066 29.5375 15.4191 29.4312 15.5378 29.2687C15.6128 29.175 15.7503 29.0688 15.8503 29.0375C15.9753 29 16.0878 29.0125 16.2191 29.0688C16.3191 29.1187 16.4566 29.2563 16.5128 29.375C16.6066 29.5562 16.6253 29.7625 16.6253 30.5938L16.6191 31.5938L17.0316 32C19.7003 32 19.8941 31.9875 20.0441 31.8875C20.1316 31.8313 20.2441 31.6875 20.2941 31.575C20.3503 31.4375 20.3753 31.0688 20.3753 30.4062C20.3753 29.875 20.4003 29.3813 20.4378 29.3125C20.4753 29.2437 20.5878 29.1437 20.6878 29.0938C20.7878 29.0438 20.9503 29.0125 21.0441 29.0312C21.1441 29.05 21.2878 29.1313 21.3753 29.225C21.5253 29.3813 21.5316 29.4125 21.5628 30.5L21.5941 31.6187L21.9691 32H24.7816C25.0628 31.725 25.1503 31.5438 25.1878 31.375C25.2191 31.2062 25.2441 24.8937 25.2441 15.9688C25.2441 6.48125 25.2253 0.75 25.1878 0.59375C25.1566 0.45625 25.0503 0.26875 24.9566 0.16875L24.7816 0H21.9378L21.5628 0.4375C21.5628 1.85 21.5378 2.1125 21.4691 2.25C21.4191 2.35 21.3191 2.46875 21.2503 2.5C21.1816 2.53125 21.0316 2.5625 20.9191 2.5625C20.7816 2.56875 20.6628 2.5125 20.5441 2.39375C20.3691 2.21875 20.3691 2.2125 20.3753 1.425C20.3753 0.89375 20.3441 0.55625 20.2941 0.425C20.2441 0.3125 20.1316 0.16875 20.0441 0.1125C19.8941 0.0125 19.7003 0 18.4503 0H17.0316L16.6191 0.40625C16.6253 1.56875 16.5941 2.0125 16.5628 2.14375C16.5253 2.26875 16.4378 2.41875 16.3566 2.46875C16.2816 2.51875 16.1191 2.5625 16.0003 2.5625C15.8816 2.5625 15.7191 2.51875 15.6378 2.46875C15.5628 2.41875 15.4753 2.26875 15.4378 2.14375C15.4066 2.0125 15.3753 1.5625 15.3753 1.14375V0.375L15.0003 0C12.3003 0 12.1066 0.0125 11.9566 0.1125C11.8691 0.16875 11.7566 0.3125 11.7066 0.41875C11.6566 0.55625 11.6253 0.89375 11.6253 1.425C11.6316 2.2 11.6253 2.225 11.4628 2.3875C11.3441 2.5125 11.2316 2.5625 11.0878 2.5625C10.9691 2.5625 10.8191 2.53125 10.7503 2.5C10.6816 2.46875 10.5816 2.35 10.5316 2.25C10.4628 2.1125 10.4378 1.85 10.4378 1.25V0.4375L10.0628 0Z" fill="#333333"/>
<rect x="2.875" y="20.9375" width="6" height="1.5" rx="0.75" fill="#333333"/>
<rect x="5.125" y="24.6875" width="6" height="1.5" rx="0.75" transform="rotate(-90 5.125 24.6875)" fill="#333333"/>
<rect x="15.5" y="15.5" width="6.75" height="1.5" rx="0.75" fill="#333333"/>
<rect x="10" y="11.75" width="12.25" height="1.5" rx="0.75" fill="#333333"/>
<rect x="10" y="8" width="12.25" height="1.5" rx="0.75" fill="#333333"/>
</svg>
