<svg width="32" height="32" viewBox="0 0 32 32" fill="none" xmlns="http://www.w3.org/2000/svg">
<path fill-rule="evenodd" clip-rule="evenodd" d="M7.34375 0.00625L24.625 0L24.9562 0.14375C25.1312 0.225 25.4062 0.4 25.5625 0.54375C25.7313 0.69375 25.9188 0.95 26.2188 1.59375V30.4062L26.0312 30.8062C25.9188 31.05 25.7313 31.3062 25.5625 31.4562C25.4062 31.6 25.1313 31.775 24.625 32H7.375L7.05 31.8563C6.86875 31.775 6.59375 31.6 6.4375 31.4562C6.26875 31.3062 6.08125 31.05 5.78125 30.4062V1.59375L5.96875 1.19375C6.08125 0.95 6.26875 0.69375 6.4375 0.54375C6.59375 0.4 6.8625 0.225 7.03125 0.15L7.34375 0.00625ZM7.25 1.68125C7.20625 1.76875 7.1875 5.74375 7.1875 13.2437V24.6812H24.8125C24.8125 5.74375 24.7938 1.76875 24.75 1.68125C24.7125 1.6125 24.6 1.51875 24.5 1.4625C24.3375 1.38125 23.2625 1.36875 15.9812 1.375C8.80625 1.375 7.63125 1.3875 7.4875 1.46875C7.3875 1.51875 7.2875 1.6125 7.25 1.68125ZM7.1875 28.1187C7.1875 29.3687 7.2125 30.2312 7.25 30.3062C7.2875 30.375 7.4 30.475 7.5 30.525C7.6625 30.6125 8.7375 30.6187 16 30.6187C23.2625 30.6187 24.3375 30.6125 24.5 30.525C24.6 30.475 24.7188 30.375 24.75 30.3062C24.7875 30.2312 24.8125 29.3687 24.8125 28.1187V26.0562H7.1875V28.1187ZM15.9688 27.3813C16.45 27.375 16.95 27.4 17.075 27.4375C17.2375 27.4813 17.35 27.5625 17.4375 27.7C17.5063 27.8125 17.5625 27.9813 17.5625 28.075C17.5625 28.1688 17.5312 28.3125 17.4937 28.3875C17.4562 28.4688 17.3625 28.5813 17.2875 28.6375C17.175 28.7313 17 28.7437 16 28.7437C15 28.7437 14.825 28.7313 14.7125 28.6375C14.6375 28.5813 14.5438 28.4688 14.5063 28.3875C14.4688 28.3125 14.4375 28.1688 14.4375 28.075C14.4375 27.9813 14.5 27.8125 14.5688 27.7062C14.6438 27.5938 14.7937 27.475 14.9 27.4438C15.0062 27.4125 15.4875 27.3813 15.9688 27.3813Z" fill="#333333"/>
<path fill-rule="evenodd" clip-rule="evenodd" d="M18.125 7.0625C18.5392 7.0625 18.875 7.39829 18.875 7.8125V10.25H21.3125C21.7267 10.25 22.0625 10.5858 22.0625 11C22.0625 11.4142 21.7267 11.75 21.3125 11.75H18.125C17.7108 11.75 17.375 11.4142 17.375 11V7.8125C17.375 7.39829 17.7108 7.0625 18.125 7.0625Z" fill="#333333"/>
<path fill-rule="evenodd" clip-rule="evenodd" d="M21.8428 7.28217C22.1357 7.57506 22.1357 8.04994 21.8428 8.34283L18.6553 11.5303C18.3624 11.8232 17.8876 11.8232 17.5947 11.5303C17.3018 11.2374 17.3018 10.7626 17.5947 10.4697L20.7822 7.28217C21.0751 6.98928 21.5499 6.98928 21.8428 7.28217Z" fill="#333333"/>
<path fill-rule="evenodd" clip-rule="evenodd" d="M13.6165 8.63801C13.559 8.58856 13.4855 8.56171 13.4097 8.56245C13.4072 8.56248 13.4048 8.56249 13.4023 8.56249H11.809C11.7657 8.56256 11.7229 8.57164 11.6833 8.58913C11.6436 8.60666 11.608 8.63226 11.5788 8.66431C11.5495 8.69635 11.5273 8.73413 11.5134 8.77524C11.5 8.81502 11.4948 8.85708 11.498 8.8989C11.6608 10.4212 12.1794 11.8838 13.0118 13.1688C13.013 13.1706 13.0142 13.1725 13.0153 13.1743C13.7719 14.365 14.7814 15.3744 15.9721 16.131C15.974 16.1323 15.976 16.1335 15.9779 16.1348C17.2567 16.9641 18.7119 17.4825 20.2269 17.6484C20.2686 17.6515 20.3106 17.6462 20.3503 17.6328C20.3915 17.6189 20.4293 17.5965 20.4614 17.5671C20.4935 17.5377 20.519 17.5019 20.5365 17.462C20.5539 17.4221 20.5628 17.3791 20.5626 17.3355L20.5626 17.3325V15.7387C20.5626 15.7343 20.5627 15.7299 20.5628 15.7254C20.5628 15.7237 20.5628 15.7219 20.5629 15.7201C20.5648 15.6435 20.5384 15.5689 20.4889 15.5104C20.4398 15.4525 20.3714 15.4144 20.2964 15.4033C19.7318 15.3285 19.1775 15.1902 18.6439 14.9911L18.6422 14.9905C18.5862 14.9694 18.5255 14.9649 18.467 14.9774C18.4091 14.9897 18.3559 15.0183 18.3135 15.0597L17.6408 15.7325C17.402 15.9712 17.0332 16.021 16.7397 15.8541C15.2924 15.0312 14.094 13.8328 13.271 12.3854C13.1041 12.0919 13.1539 11.7231 13.3926 11.4843L14.0654 10.8116C14.1068 10.7693 14.1354 10.716 14.1478 10.6581C14.1602 10.5997 14.1557 10.5389 14.1347 10.4829L14.134 10.4813C13.9349 9.94771 13.7967 9.39341 13.7219 8.82886C13.7108 8.75469 13.6734 8.68694 13.6165 8.63801ZM13.3991 7.06249C13.8375 7.05919 14.2622 7.21485 14.5946 7.50073C14.9281 7.78751 15.1459 8.18578 15.2074 8.62128C15.2076 8.62243 15.2078 8.62359 15.2079 8.62474C15.2081 8.62588 15.2082 8.62703 15.2084 8.62817C15.2682 9.08188 15.3792 9.52736 15.5391 9.95614C15.6607 10.2802 15.687 10.6324 15.6148 10.971C15.5425 11.3099 15.3746 11.6209 15.1309 11.8673L15.128 11.8703L14.8726 12.1257C15.4358 12.9667 16.1585 13.6893 16.9995 14.2525L17.2548 13.9972L17.2578 13.9942C17.5042 13.7505 17.8153 13.5826 18.1542 13.5103C18.4927 13.4381 18.8449 13.4644 19.1689 13.586C19.5977 13.7459 20.0432 13.8569 20.497 13.9167C20.498 13.9169 20.4991 13.917 20.5002 13.9172C20.5013 13.9173 20.5025 13.9175 20.5037 13.9177C20.9439 13.9798 21.3459 14.2015 21.6333 14.5407C21.9185 14.8772 22.071 15.3061 22.0626 15.7468V17.3313C22.0634 17.5831 22.0117 17.8322 21.9108 18.0629C21.8097 18.2942 21.6614 18.5018 21.4754 18.6724C21.2895 18.843 21.0699 18.9729 20.8308 19.0538C20.5917 19.1346 20.3384 19.1647 20.087 19.1419C20.0852 19.1418 20.0834 19.1416 20.0816 19.1414C20.0789 19.1412 20.0762 19.1409 20.0735 19.1406C18.3233 18.9504 16.642 18.3526 15.1646 17.3952C13.7903 16.5213 12.6249 15.3559 11.7511 13.9816C10.7902 12.4974 10.1923 10.808 10.0056 9.04981C10.0052 9.04592 10.0048 9.04202 10.0044 9.03812C9.98178 8.78751 10.0116 8.53493 10.0919 8.29646C10.1722 8.058 10.3013 7.83887 10.4709 7.65302C10.6406 7.46718 10.8471 7.3187 11.0772 7.21703C11.3074 7.11536 11.5562 7.06273 11.8079 7.06249L13.3991 7.06249Z" fill="#333333"/>
</svg>
