<svg width="64" height="64" viewBox="0 0 64 64" fill="none" xmlns="http://www.w3.org/2000/svg">
<path d="M42.6663 5.33331L36.533 11.4666C35.0671 12.9621 34.2461 14.9726 34.2461 17.0666C34.2461 19.1607 35.0671 21.1712 36.533 22.6666L41.333 27.4666C42.8284 28.9325 44.8389 29.7535 46.933 29.7535C49.027 29.7535 51.0375 28.9325 52.533 27.4666L58.6663 21.3333" stroke="#ABC4E4" stroke-width="2" stroke-linecap="round" stroke-linejoin="round"/>
<path d="M39.9991 40L8.79913 8.79999C7.73482 9.8428 6.88928 11.0875 6.31205 12.4612C5.73482 13.8349 5.4375 15.3099 5.4375 16.8C5.4375 18.29 5.73482 19.7651 6.31205 21.1388C6.88928 22.5125 7.73482 23.7572 8.79913 24.8L28.2658 44.2667C30.1325 46.1333 33.5991 46.1333 35.7325 44.2667L39.9991 40ZM39.9991 40L58.6658 58.6667" stroke="#ABC4E4" stroke-width="2" stroke-linecap="round" stroke-linejoin="round"/>
<path d="M5.59961 58.1333L22.6663 41.3333" stroke="#ABC4E4" stroke-width="2" stroke-linecap="round" stroke-linejoin="round"/>
<path d="M50.6667 13.3333L32 32" stroke="#ABC4E4" stroke-width="2" stroke-linecap="round" stroke-linejoin="round"/>
</svg>
