<svg width="17" height="16" viewBox="0 0 17 16" fill="none" xmlns="http://www.w3.org/2000/svg">
<path d="M14.8702 13.3438L14.8702 13.3438L14.8716 13.346C14.8942 13.3815 14.9094 13.4213 14.9162 13.4629C14.9231 13.5045 14.9214 13.547 14.9114 13.588C14.9014 13.6289 14.8832 13.6674 14.8579 13.7011C14.8326 13.7348 14.8007 13.7631 14.7642 13.7842C14.7278 13.8053 14.6874 13.8188 14.6455 13.8238C14.6037 13.8289 14.5613 13.8255 14.5208 13.8138C14.4803 13.802 14.4426 13.7822 14.41 13.7555C14.3774 13.7288 14.3505 13.6958 14.331 13.6585L14.331 13.6585L14.3297 13.6561C13.1181 11.5629 10.9765 10.3124 8.59995 10.3124C6.22339 10.3124 4.08177 11.5629 2.87023 13.6561L2.87018 13.6561L2.86894 13.6585C2.84941 13.6958 2.82252 13.7288 2.7899 13.7555C2.75727 13.7822 2.71959 13.802 2.67911 13.8138C2.63863 13.8255 2.5962 13.8289 2.55436 13.8238C2.51252 13.8188 2.47214 13.8053 2.43565 13.7842C2.39916 13.7631 2.36732 13.7348 2.34203 13.7011C2.31675 13.6674 2.29854 13.6289 2.28851 13.588C2.27849 13.547 2.27684 13.5045 2.28368 13.4629C2.29052 13.4213 2.30571 13.3815 2.32832 13.346L2.32836 13.346L2.32967 13.3437C3.30981 11.6494 4.84787 10.4619 6.63439 9.95886L6.78841 9.91549L6.64577 9.84299C5.78195 9.40388 5.09119 8.68664 4.68487 7.80692C4.27855 6.9272 4.18036 5.93627 4.40612 4.99392C4.63189 4.05156 5.16845 3.21271 5.9293 2.61261C6.69015 2.01252 7.63093 1.68616 8.59995 1.68616C9.56897 1.68616 10.5098 2.01252 11.2706 2.61261C12.0314 3.21271 12.568 4.05156 12.7938 4.99392C13.0195 5.93627 12.9213 6.9272 12.515 7.80692C12.1087 8.68664 11.4179 9.40388 10.5541 9.84299L10.4116 9.91546L10.5655 9.95886C12.352 10.4625 13.8901 11.6501 14.8702 13.3438ZM4.91245 5.99995V6.00002C4.91363 6.97763 5.3025 7.91486 5.99377 8.60613C6.68504 9.2974 7.62227 9.68627 8.59987 9.68745H8.59995C9.32927 9.68745 10.0422 9.47118 10.6486 9.06599C11.255 8.66081 11.7277 8.0849 12.0068 7.41109C12.2859 6.73729 12.3589 5.99586 12.2166 5.28055C12.0743 4.56525 11.7231 3.9082 11.2074 3.39249C10.6917 2.87679 10.0346 2.52559 9.31934 2.3833C8.60404 2.24102 7.86261 2.31404 7.1888 2.59314C6.515 2.87224 5.93909 3.34488 5.5339 3.95128C5.12872 4.55769 4.91245 5.27063 4.91245 5.99995Z" fill="#333333" stroke="#333333" stroke-width="0.125"/>
</svg>
