<svg width="128" height="128" viewBox="0 0 128 128" fill="none" xmlns="http://www.w3.org/2000/svg">
<path d="M96 106.667C96 98.1797 92.6286 90.0404 86.6274 84.0392C80.6263 78.038 72.4869 74.6666 64 74.6666C55.5131 74.6666 47.3737 78.038 41.3726 84.0392C35.3714 90.0404 32 98.1797 32 106.667" stroke="#ABC4E4" stroke-width="2" stroke-linecap="round" stroke-linejoin="round"/>
<path d="M64.0001 74.6667C75.7822 74.6667 85.3334 65.1154 85.3334 53.3333C85.3334 41.5513 75.7822 32 64.0001 32C52.218 32 42.6667 41.5513 42.6667 53.3333C42.6667 65.1154 52.218 74.6667 64.0001 74.6667Z" stroke="#ABC4E4" stroke-width="2" stroke-linecap="round" stroke-linejoin="round"/>
<path d="M64.0001 117.333C93.4553 117.333 117.333 93.4551 117.333 64C117.333 34.5448 93.4553 10.6666 64.0001 10.6666C34.5449 10.6666 10.6667 34.5448 10.6667 64C10.6667 93.4551 34.5449 117.333 64.0001 117.333Z" stroke="#ABC4E4" stroke-width="2" stroke-linecap="round" stroke-linejoin="round"/>
</svg>
