<svg width="21" height="20" viewBox="0 0 21 20" fill="none" xmlns="http://www.w3.org/2000/svg">
<path d="M18.3514 16.672L18.3513 16.672L18.3527 16.6742C18.3821 16.7204 18.4018 16.7721 18.4107 16.8262C18.4196 16.8803 18.4175 16.9356 18.4045 16.9888C18.3914 17.042 18.3678 17.092 18.3349 17.1359C18.302 17.1797 18.2606 17.2164 18.2132 17.2438C18.1657 17.2713 18.1133 17.2888 18.0589 17.2954C18.0045 17.302 17.9493 17.2976 17.8967 17.2823C17.8441 17.267 17.7951 17.2413 17.7527 17.2066C17.7103 17.1719 17.6753 17.129 17.6499 17.0804L17.65 17.0804L17.6486 17.0781C16.1369 14.4663 13.465 12.9063 10.5 12.9063C7.535 12.9063 4.86307 14.4663 3.35137 17.0781L3.35132 17.0781L3.35008 17.0804C3.32469 17.129 3.28973 17.1719 3.24732 17.2066C3.20491 17.2413 3.15592 17.267 3.1033 17.2823C3.05068 17.2976 2.99552 17.302 2.94113 17.2954C2.88673 17.2888 2.83424 17.2713 2.78681 17.2438C2.73937 17.2164 2.69797 17.1797 2.6651 17.1359C2.63223 17.092 2.60856 17.042 2.59553 16.9888C2.58249 16.9356 2.58036 16.8803 2.58925 16.8262C2.59814 16.7721 2.61788 16.7204 2.64727 16.6742L2.64732 16.6742L2.64863 16.6719C3.87579 14.5506 5.80167 13.0635 8.03881 12.4336L8.19283 12.3903L8.05019 12.3177C6.96728 11.7673 6.10133 10.8681 5.59196 9.76529C5.08259 8.66246 4.9595 7.42021 5.24252 6.23885C5.52555 5.05749 6.1982 4.00588 7.15201 3.25359C8.10582 2.5013 9.28521 2.09216 10.5 2.09216C11.7148 2.09216 12.8942 2.5013 13.848 3.25359C14.8018 4.00588 15.4744 5.05749 15.7575 6.23885C16.0405 7.42021 15.9174 8.66246 15.408 9.76529C14.8987 10.8681 14.0327 11.7673 12.9498 12.3177L12.8072 12.3902L12.9612 12.4336C15.1983 13.0643 17.1242 14.5514 18.3514 16.672ZM5.90625 7.50003V7.5001C5.90771 8.71797 6.39216 9.88554 7.25332 10.7467C8.11449 11.6079 9.28205 12.0923 10.4999 12.0938H10.5C11.4086 12.0938 12.2967 11.8244 13.0521 11.3196C13.8076 10.8148 14.3964 10.0974 14.7441 9.25798C15.0918 8.41858 15.1827 7.49493 15.0055 6.60383C14.8282 5.71273 14.3907 4.8942 13.7483 4.25175C13.1058 3.60931 12.2873 3.1718 11.3962 2.99454C10.5051 2.81729 9.58144 2.90826 8.74204 3.25595C7.90265 3.60365 7.1852 4.19244 6.68043 4.94788C6.17566 5.70331 5.90625 6.59147 5.90625 7.50003Z" fill="#2F80ED" stroke="#2F80ED" stroke-width="0.125"/>
</svg>
