<svg width="20" height="20" viewBox="0 0 20 20" fill="none" xmlns="http://www.w3.org/2000/svg">
<path d="M4.97 3.35C5.06389 3.24023 5.18044 3.15211 5.31163 3.09169C5.44283 3.03127 5.58556 2.99999 5.73 3H14.27C14.4144 2.99999 14.5572 3.03127 14.6884 3.09169C14.8196 3.15211 14.9361 3.24023 15.03 3.35L17.639 6.394C17.8719 6.66583 18 7.01201 18 7.37V7.625C18.0001 8.11998 17.8455 8.6026 17.5578 9.00542C17.2702 9.40824 16.8639 9.71113 16.3957 9.87174C15.9275 10.0324 15.4208 10.0427 14.9465 9.90127C14.4721 9.75986 14.0538 9.47377 13.75 9.083C13.5281 9.36877 13.2438 9.59998 12.9188 9.75892C12.5938 9.91786 12.2368 10.0003 11.875 10C11.5132 10.0004 11.1561 9.91797 10.8311 9.75902C10.5061 9.60007 10.2218 9.36882 10 9.083C9.77819 9.36882 9.49389 9.60007 9.16888 9.75902C8.84388 9.91797 8.48679 10.0004 8.125 10C7.76321 10.0004 7.40612 9.91797 7.08112 9.75902C6.75611 9.60007 6.47181 9.36882 6.25 9.083C5.94619 9.47377 5.52788 9.75986 5.05354 9.90127C4.57919 10.0427 4.07252 10.0324 3.60432 9.87174C3.13613 9.71113 2.72982 9.40824 2.44218 9.00542C2.15454 8.6026 1.99995 8.11998 2 7.625V7.37C2.00001 7.01201 2.12806 6.66583 2.361 6.394L4.97 3.35ZM6.75 7.625C6.75 7.98967 6.89487 8.33941 7.15273 8.59727C7.41059 8.85513 7.76033 9 8.125 9C8.48967 9 8.83941 8.85513 9.09727 8.59727C9.35513 8.33941 9.5 7.98967 9.5 7.625C9.5 7.49239 9.55268 7.36521 9.64645 7.27145C9.74021 7.17768 9.86739 7.125 10 7.125C10.1326 7.125 10.2598 7.17768 10.3536 7.27145C10.4473 7.36521 10.5 7.49239 10.5 7.625C10.5 7.98967 10.6449 8.33941 10.9027 8.59727C11.1606 8.85513 11.5103 9 11.875 9C12.2397 9 12.5894 8.85513 12.8473 8.59727C13.1051 8.33941 13.25 7.98967 13.25 7.625C13.25 7.49239 13.3027 7.36521 13.3964 7.27145C13.4902 7.17768 13.6174 7.125 13.75 7.125C13.8826 7.125 14.0098 7.17768 14.1036 7.27145C14.1973 7.36521 14.25 7.49239 14.25 7.625C14.25 7.98967 14.3949 8.33941 14.6527 8.59727C14.9106 8.85513 15.2603 9 15.625 9C15.9897 9 16.3394 8.85513 16.5973 8.59727C16.8551 8.33941 17 7.98967 17 7.625V7.37C17 7.25083 16.9575 7.13557 16.88 7.045L14.27 4H5.73L3.12 7.045C3.04255 7.13557 2.99999 7.25083 3 7.37V7.625C3 7.98967 3.14487 8.33941 3.40273 8.59727C3.66059 8.85513 4.01033 9 4.375 9C4.73967 9 5.08941 8.85513 5.34727 8.59727C5.60513 8.33941 5.75 7.98967 5.75 7.625C5.75 7.49239 5.80268 7.36521 5.89645 7.27145C5.99021 7.17768 6.11739 7.125 6.25 7.125C6.38261 7.125 6.50979 7.17768 6.60355 7.27145C6.69732 7.36521 6.75 7.49239 6.75 7.625ZM3.5 10.5C3.63261 10.5 3.75979 10.5527 3.85355 10.6464C3.94732 10.7402 4 10.8674 4 11V17H7.5V13C7.5 12.7348 7.60536 12.4804 7.79289 12.2929C7.98043 12.1054 8.23478 12 8.5 12H11.5C11.7652 12 12.0196 12.1054 12.2071 12.2929C12.3946 12.4804 12.5 12.7348 12.5 13V17H16V11C16 10.8674 16.0527 10.7402 16.1464 10.6464C16.2402 10.5527 16.3674 10.5 16.5 10.5C16.6326 10.5 16.7598 10.5527 16.8536 10.6464C16.9473 10.7402 17 10.8674 17 11V17H17.5C17.6326 17 17.7598 17.0527 17.8536 17.1464C17.9473 17.2402 18 17.3674 18 17.5C18 17.6326 17.9473 17.7598 17.8536 17.8536C17.7598 17.9473 17.6326 18 17.5 18H2.5C2.36739 18 2.24021 17.9473 2.14645 17.8536C2.05268 17.7598 2 17.6326 2 17.5C2 17.3674 2.05268 17.2402 2.14645 17.1464C2.24021 17.0527 2.36739 17 2.5 17H3V11C3 10.8674 3.05268 10.7402 3.14645 10.6464C3.24021 10.5527 3.36739 10.5 3.5 10.5ZM8.5 17H11.5V13H8.5V17Z" fill="#2F80ED"/>
</svg>
