<svg width="20" height="20" viewBox="0 0 20 20" fill="none" xmlns="http://www.w3.org/2000/svg">
<path d="M16.902 3H3.09804C2.80682 3 2.52753 3.11768 2.32161 3.32714C2.11569 3.53661 2 3.82071 2 4.11694V14.3289C2 14.6252 2.11569 14.9093 2.32161 15.1187C2.52753 15.3282 2.80682 15.4459 3.09804 15.4459H7.76235C7.78959 15.4462 7.81629 15.4537 7.8398 15.4677C7.86332 15.4817 7.88285 15.5017 7.89647 15.5257L9.05882 17.4564C9.15609 17.6218 9.29378 17.7588 9.45851 17.8541C9.62324 17.9493 9.8094 17.9996 9.99889 18C10.1884 18.0004 10.3747 17.9509 10.5399 17.8564C10.705 17.7618 10.8432 17.6254 10.9412 17.4604L12.1035 15.5257C12.1171 15.5017 12.1367 15.4817 12.1602 15.4677C12.1837 15.4537 12.2104 15.4462 12.2376 15.4459H16.902C17.1932 15.4459 17.4725 15.3282 17.6784 15.1187C17.8843 14.9093 18 14.6252 18 14.3289V4.11694C18 3.82071 17.8843 3.53661 17.6784 3.32714C17.4725 3.11768 17.1932 3 16.902 3ZM17.0588 14.3289C17.0588 14.3713 17.0423 14.4118 17.0129 14.4418C16.9835 14.4717 16.9436 14.4885 16.902 14.4885H12.2376C12.0485 14.4882 11.8624 14.5376 11.6975 14.6319C11.5326 14.7263 11.3944 14.8624 11.2965 15.027L10.1349 16.9617C10.1211 16.9859 10.1013 17.006 10.0775 17.0199C10.0537 17.0339 10.0267 17.0412 9.99922 17.0412C9.97174 17.0412 9.94474 17.0339 9.92092 17.0199C9.89711 17.006 9.87732 16.9859 9.86353 16.9617L8.70275 15.0294C8.60445 14.865 8.46628 14.7289 8.30149 14.6344C8.13669 14.5398 7.95078 14.4898 7.76157 14.4893H3.09804C3.05644 14.4893 3.01654 14.4725 2.98712 14.4426C2.9577 14.4126 2.94118 14.3721 2.94118 14.3297V4.11694C2.94118 4.07462 2.9577 4.03403 2.98712 4.00411C3.01654 3.97419 3.05644 3.95738 3.09804 3.95738H16.902C16.9436 3.95738 16.9835 3.97419 17.0129 4.00411C17.0423 4.03403 17.0588 4.07462 17.0588 4.11694V14.3289ZM12.9804 7.94644C12.9804 8.0734 12.9308 8.19515 12.8426 8.28492C12.7543 8.3747 12.6346 8.42513 12.5098 8.42513H7.4902C7.36539 8.42513 7.24569 8.3747 7.15744 8.28492C7.06919 8.19515 7.01961 8.0734 7.01961 7.94644C7.01961 7.81949 7.06919 7.69773 7.15744 7.60796C7.24569 7.51819 7.36539 7.46775 7.4902 7.46775H12.5098C12.6346 7.46775 12.7543 7.51819 12.8426 7.60796C12.9308 7.69773 12.9804 7.81949 12.9804 7.94644ZM12.9804 10.4994C12.9804 10.6264 12.9308 10.7482 12.8426 10.8379C12.7543 10.9277 12.6346 10.9781 12.5098 10.9781H7.4902C7.36539 10.9781 7.24569 10.9277 7.15744 10.8379C7.06919 10.7482 7.01961 10.6264 7.01961 10.4994C7.01961 10.3725 7.06919 10.2507 7.15744 10.161C7.24569 10.0712 7.36539 10.0208 7.4902 10.0208H12.5098C12.6346 10.0208 12.7543 10.0712 12.8426 10.161C12.9308 10.2507 12.9804 10.3725 12.9804 10.4994Z" fill="#333333"/>
</svg>
