<svg width="24" height="24" viewBox="0 0 24 24" fill="none" xmlns="http://www.w3.org/2000/svg">
<path d="M22.3385 20.6032L17.5088 15.7864C18.8861 14.2067 19.5946 12.1554 19.485 10.065C19.3753 7.97447 18.4562 6.00809 16.9213 4.58032C15.3863 3.15255 13.3555 2.37493 11.2569 2.41138C9.15828 2.44784 7.15585 3.29551 5.67168 4.77573C4.18752 6.25594 3.33758 8.25305 3.30103 10.3461C3.26448 12.4391 4.04418 14.4645 5.47576 15.9954C6.90734 17.5262 8.87896 18.4429 10.975 18.5523C13.0711 18.6616 15.1278 17.955 16.7117 16.5814L21.5414 21.3982C21.6483 21.4976 21.7897 21.5517 21.9358 21.5491C22.082 21.5465 22.2214 21.4875 22.3247 21.3845C22.428 21.2814 22.4872 21.1424 22.4898 20.9966C22.4924 20.8509 22.4381 20.7099 22.3385 20.6032ZM4.45596 10.5007C4.45596 9.12863 4.86392 7.78733 5.62826 6.64647C6.39259 5.5056 7.47897 4.61641 8.75001 4.09132C10.0211 3.56624 11.4197 3.42885 12.769 3.69654C14.1183 3.96422 15.3578 4.62496 16.3306 5.59518C17.3034 6.56541 17.9659 7.80155 18.2343 9.1473C18.5027 10.493 18.3649 11.8879 17.8385 13.1556C17.312 14.4233 16.4204 15.5068 15.2765 16.2691C14.1326 17.0314 12.7877 17.4382 11.412 17.4382C9.5678 17.436 7.79982 16.7044 6.4958 15.4038C5.19178 14.1033 4.4582 12.34 4.45596 10.5007Z" fill="#333333"/>
</svg>
