<svg width="40" height="40" viewBox="0 0 40 40" fill="none" xmlns="http://www.w3.org/2000/svg">
<path d="M30.3385 28.6032L25.5088 23.7864C26.8861 22.2067 27.5946 20.1554 27.485 18.065C27.3753 15.9745 26.4562 14.0081 24.9213 12.5803C23.3863 11.1525 21.3555 10.3749 19.2569 10.4114C17.1583 10.4478 15.1558 11.2955 13.6717 12.7757C12.1875 14.2559 11.3376 16.2531 11.301 18.3461C11.2645 20.4391 12.0442 22.4645 13.4758 23.9954C14.9073 25.5262 16.879 26.4429 18.975 26.5523C21.0711 26.6616 23.1278 25.955 24.7117 24.5814L29.5414 29.3982C29.6483 29.4976 29.7897 29.5517 29.9358 29.5491C30.082 29.5465 30.2214 29.4875 30.3247 29.3845C30.428 29.2814 30.4872 29.1424 30.4898 28.9966C30.4924 28.8509 30.4381 28.7099 30.3385 28.6032ZM12.456 18.5007C12.456 17.1286 12.8639 15.7873 13.6283 14.6465C14.3926 13.5056 15.479 12.6164 16.75 12.0913C18.0211 11.5662 19.4197 11.4289 20.769 11.6965C22.1183 11.9642 23.3578 12.625 24.3306 13.5952C25.3034 14.5654 25.9659 15.8016 26.2343 17.1473C26.5027 18.493 26.3649 19.8879 25.8385 21.1556C25.312 22.4233 24.4204 23.5068 23.2765 24.2691C22.1326 25.0314 20.7877 25.4382 19.412 25.4382C17.5678 25.436 15.7998 24.7044 14.4958 23.4038C13.1918 22.1033 12.4582 20.34 12.456 18.5007Z" fill="#182548"/>
</svg>
