<svg width="20" height="20" viewBox="0 0 20 20" fill="none" xmlns="http://www.w3.org/2000/svg">
<path d="M16.2052 4.48311L4.47859 16.1984C4.38597 16.2846 4.26346 16.3315 4.13688 16.3293C4.01029 16.3271 3.88952 16.2758 3.8 16.1864C3.71048 16.097 3.6592 15.9763 3.65696 15.8499C3.65473 15.7234 3.70172 15.601 3.78802 15.5085L15.5146 3.79321C15.5599 3.74731 15.6138 3.71081 15.6732 3.68582C15.7327 3.66084 15.7965 3.64786 15.861 3.64763C15.9255 3.64741 15.9894 3.65995 16.049 3.68452C16.1087 3.70909 16.1628 3.74522 16.2084 3.79081C16.254 3.8364 16.2901 3.89055 16.3146 3.95015C16.3391 4.00974 16.3516 4.0736 16.3513 4.13804C16.351 4.20247 16.3379 4.26621 16.3129 4.32558C16.2878 4.38494 16.2512 4.43876 16.2052 4.48393V4.48311ZM3.80757 7.71864C3.35534 7.26528 3.07448 6.66928 3.01285 6.03221C2.95121 5.39514 3.11263 4.75643 3.46957 4.22494C3.82652 3.69345 4.35692 3.30207 4.97036 3.11751C5.5838 2.93294 6.24232 2.96661 6.8337 3.21278C7.42508 3.45895 7.9127 3.90238 8.21347 4.4675C8.51424 5.03262 8.60954 5.68445 8.48313 6.3119C8.35672 6.93936 8.01642 7.5036 7.52022 7.90847C7.02403 8.31333 6.40266 8.53377 5.762 8.5322C5.39859 8.53229 5.03876 8.46044 4.7033 8.3208C4.36784 8.18116 4.0634 7.9765 3.80757 7.71864ZM3.97044 5.7661C3.97058 6.18018 4.11442 6.5814 4.37747 6.9014C4.64051 7.2214 5.00648 7.44039 5.41302 7.52105C5.81957 7.60171 6.24152 7.53905 6.60701 7.34374C6.97249 7.14844 7.25888 6.83258 7.41738 6.44997C7.57589 6.06737 7.5967 5.64169 7.47628 5.24548C7.35585 4.84926 7.10164 4.50701 6.75695 4.27705C6.41227 4.04709 5.99843 3.94364 5.58596 3.98433C5.17348 4.02502 4.78789 4.20733 4.49488 4.5002C4.32803 4.66608 4.19576 4.86338 4.10574 5.08067C4.01572 5.29796 3.96973 5.53093 3.97044 5.7661ZM17 14.2271C17.0016 14.8672 16.7809 15.4879 16.3757 15.9836C15.9704 16.4794 15.4056 16.8193 14.7775 16.9456C14.1495 17.0719 13.497 16.9767 12.9314 16.6762C12.3657 16.3757 11.9218 15.8886 11.6754 15.2978C11.429 14.707 11.3953 14.0491 11.5801 13.4362C11.7648 12.8234 12.1566 12.2935 12.6886 11.9369C13.2206 11.5803 13.8599 11.419 14.4976 11.4806C15.1353 11.5422 15.7318 11.8228 16.1856 12.2746C16.4438 12.5302 16.6486 12.8343 16.7884 13.1694C16.9282 13.5046 17.0001 13.8641 17 14.2271ZM16.0228 14.2271C16.0234 13.992 15.9774 13.759 15.8874 13.5417C15.7974 13.3244 15.6651 13.1271 15.4983 12.9612C15.2053 12.6684 14.8197 12.486 14.4073 12.4454C13.9948 12.4047 13.5809 12.5081 13.2363 12.7381C12.8916 12.968 12.6374 13.3103 12.5169 13.7065C12.3965 14.1027 12.4173 14.5284 12.5758 14.911C12.7343 15.2936 13.0207 15.6095 13.3862 15.8048C13.7517 16.0001 14.1736 16.0627 14.5802 15.9821C14.9867 15.9014 15.3527 15.6824 15.6157 15.3624C15.8788 15.0424 16.0226 14.6412 16.0228 14.2271Z" fill="#2F80ED"/>
</svg>
