<svg width="84" height="60" viewBox="0 0 84 60" fill="none" xmlns="http://www.w3.org/2000/svg">
<path d="M27.7751 49.125L31.4109 40.2354C31.6431 39.729 31.9922 39.3129 32.4582 38.9871C32.9261 38.6613 33.4453 38.4984 34.0157 38.4984H40.6504V25.7151C34.4944 25.5947 29.3298 24.8369 25.1568 23.4416C20.9856 22.0463 18.9 20.4085 18.9 18.528C18.9 16.5059 21.1341 14.7999 25.6022 13.4099C30.0703 12.02 35.5363 11.325 42 11.325C48.4746 11.325 53.9432 12.02 58.4059 13.4099C62.8686 14.7999 65.1 16.5059 65.1 18.528C65.1 20.4403 63.0054 22.0871 58.8162 23.4682C54.627 24.8457 49.4715 25.5947 43.3496 25.7151V38.4984H49.9843C50.544 38.4984 51.0604 38.6613 51.5337 38.9871C52.0052 39.3129 52.357 39.729 52.5891 40.2354L56.2222 49.1223H53.4205L50.1814 41.1544H33.8187L30.5796 49.1223L27.7751 49.125ZM42 23.0724C46.8478 23.0724 51.2152 22.628 55.1021 21.7391C58.989 20.8503 61.3643 19.779 62.228 18.5254C61.3643 17.2718 58.989 16.2005 55.1021 15.3116C51.2152 14.4228 46.8478 13.9792 42 13.981C37.1522 13.981 32.7849 14.4254 28.898 15.3143C25.0111 16.2032 22.6358 17.2744 21.772 18.528C22.6358 19.7817 25.0111 20.8529 28.898 21.7418C32.7849 22.6306 37.1522 23.0724 42 23.0724Z" fill="#333333"/>
</svg>
