<svg width="20" height="20" viewBox="0 0 20 20" fill="none" xmlns="http://www.w3.org/2000/svg">
<path d="M13.6364 3C12.1091 3 10.7811 3.70512 10 4.88677C9.21891 3.70512 7.89091 3 6.36364 3C5.20674 3.00138 4.09762 3.4725 3.27957 4.31002C2.46152 5.14754 2.00135 6.28307 2 7.4675C2 9.64168 3.32364 11.9045 5.93455 14.1918C7.13094 15.2356 8.42328 16.1582 9.79345 16.9468C9.85695 16.9817 9.92791 17 10 17C10.0721 17 10.143 16.9817 10.2065 16.9468C11.5767 16.1582 12.8691 15.2356 14.0655 14.1918C16.6764 11.9045 18 9.64168 18 7.4675C17.9987 6.28307 17.5385 5.14754 16.7204 4.31002C15.9024 3.4725 14.7933 3.00138 13.6364 3ZM10 16.0384C8.80655 15.3333 2.87273 11.6163 2.87273 7.4675C2.87369 6.51992 3.24179 5.61143 3.89625 4.94139C4.55072 4.27135 5.43809 3.89449 6.36364 3.8935C7.83855 3.8935 9.07709 4.69988 9.59636 5.99844C9.62924 6.08037 9.68517 6.15046 9.75704 6.19978C9.82891 6.2491 9.91348 6.27544 10 6.27544C10.0865 6.27544 10.1711 6.2491 10.243 6.19978C10.3148 6.15046 10.3708 6.08037 10.4036 5.99844C10.9229 4.69988 12.1615 3.8935 13.6364 3.8935C14.5619 3.89449 15.4493 4.27135 16.1037 4.94139C16.7582 5.61143 17.1263 6.51992 17.1273 7.4675C17.1273 11.6163 11.1935 15.3333 10 16.0384Z" fill="#333333"/>
</svg>
