<svg width="40" height="40" viewBox="0 0 40 40" fill="none" xmlns="http://www.w3.org/2000/svg">
<circle cx="20" cy="20" r="12" fill="#27C440"/>
<path d="M20 26.6666L18.6667 26L17.3334 26.6666L16 26L14.6667 26.6666V13.3333L16 14L17.3334 13.3333L18.6667 14L20 13.3333L21.3334 14L22.6667 13.3333L24 14L25.3334 13.3333V18.6666" stroke="white" stroke-width="1.13" stroke-linecap="round" stroke-linejoin="round"/>
<path d="M21.3333 17.3333H17.3333" stroke="white" stroke-width="1.13" stroke-linecap="round" stroke-linejoin="round"/>
<path d="M20 20H17.3333" stroke="white" stroke-width="1.13" stroke-linecap="round" stroke-linejoin="round"/>
<path d="M20.6666 22.6667H17.3333" stroke="white" stroke-width="1.13" stroke-linecap="round" stroke-linejoin="round"/>
<path d="M22.3333 22.8C22.3333 22.2342 22.544 21.6916 22.9191 21.2915C23.2942 20.8914 23.8029 20.6667 24.3333 20.6667C24.8637 20.6667 25.3725 20.8914 25.7475 21.2915C26.1226 21.6916 26.3333 22.2342 26.3333 22.8C26.3333 25.2889 27.3333 26 27.3333 26H21.3333C21.3333 26 22.3333 25.2889 22.3333 22.8Z" stroke="white" stroke-width="1.13" stroke-linecap="round" stroke-linejoin="round"/>
<path d="M24 27.3333C24.0328 27.3333 24.0811 27.3333 24.1397 27.3333C24.1983 27.3333 24.2652 27.3333 24.3333 27.3333C24.4015 27.3333 24.4683 27.3333 24.527 27.3333C24.5856 27.3333 24.6338 27.3333 24.6667 27.3333" stroke="white" stroke-width="1.13" stroke-linecap="round" stroke-linejoin="round"/>
</svg>
