<svg width="128" height="128" viewBox="0 0 128 128" fill="none" xmlns="http://www.w3.org/2000/svg">
<path d="M77.3332 21.3333H50.6665L37.3332 37.3333H21.3332C18.5042 37.3333 15.7911 38.4571 13.7907 40.4575C11.7903 42.4579 10.6665 45.171 10.6665 48V96C10.6665 98.829 11.7903 101.542 13.7907 103.542C15.7911 105.543 18.5042 106.667 21.3332 106.667H106.666C109.495 106.667 112.209 105.543 114.209 103.542C116.209 101.542 117.333 98.829 117.333 96V48C117.333 45.171 116.209 42.4579 114.209 40.4575C112.209 38.4571 109.495 37.3333 106.666 37.3333H90.6665L77.3332 21.3333Z" stroke="#ABC4E4" stroke-width="2" stroke-linecap="round" stroke-linejoin="round"/>
<path d="M64 85.3333C72.8366 85.3333 80 78.1699 80 69.3333C80 60.4968 72.8366 53.3333 64 53.3333C55.1634 53.3333 48 60.4968 48 69.3333C48 78.1699 55.1634 85.3333 64 85.3333Z" stroke="#ABC4E4" stroke-width="2" stroke-linecap="round" stroke-linejoin="round"/>
</svg>
