<svg width="20" height="20" viewBox="0 0 20 20" fill="none" xmlns="http://www.w3.org/2000/svg">
<path d="M6.11111 7.13287V3.45947C6.11111 3.33769 6.16028 3.2209 6.24779 3.13479C6.33531 3.04867 6.45401 3.0003 6.57778 3.0003C6.70155 3.0003 6.82024 3.04867 6.90776 3.13479C6.99528 3.2209 7.04444 3.33769 7.04444 3.45947V7.13287C7.04444 7.25465 6.99528 7.37144 6.90776 7.45755C6.82024 7.54367 6.70155 7.59204 6.57778 7.59204C6.45401 7.59204 6.33531 7.54367 6.24779 7.45755C6.16028 7.37144 6.11111 7.25465 6.11111 7.13287ZM17 3.45947V17.5408C17 17.6626 16.9508 17.7794 16.8633 17.8655C16.7758 17.9516 16.6571 18 16.5333 18C16.4096 18 16.2909 17.9516 16.2034 17.8655C16.1158 17.7794 16.0667 17.6626 16.0667 17.5408V13.7144H12.1778C12.054 13.7144 11.9353 13.666 11.8478 13.5799C11.7603 13.4938 11.7111 13.377 11.7111 13.2552C11.7111 12.9177 11.764 4.97092 16.3498 3.0378C16.4207 3.00794 16.4981 2.99585 16.5749 3.00261C16.6518 3.00938 16.7257 3.03479 16.7901 3.07657C16.8546 3.11835 16.9075 3.17519 16.9441 3.24202C16.9807 3.30884 16.9999 3.38355 17 3.45947ZM16.0667 4.22476C13.2052 6.08365 12.7362 11.2256 12.6592 12.796H16.0667V4.22476ZM9.52711 3.38294C9.5169 3.32345 9.49487 3.26651 9.4623 3.21539C9.42972 3.16427 9.38723 3.11996 9.33725 3.085C9.28727 3.05004 9.23079 3.0251 9.17101 3.01162C9.11124 2.99814 9.04936 2.99637 8.98889 3.00642C8.92842 3.01647 8.87056 3.03814 8.8186 3.07019C8.76665 3.10225 8.72162 3.14405 8.68609 3.19323C8.65055 3.24241 8.62521 3.29799 8.61151 3.3568C8.5978 3.41561 8.59601 3.47651 8.60622 3.536L9.22222 7.1696C9.22222 7.85969 8.94361 8.52152 8.44768 9.00949C7.95175 9.49745 7.27913 9.77159 6.57778 9.77159C5.87643 9.77159 5.2038 9.49745 4.70787 9.00949C4.21194 8.52152 3.93333 7.85969 3.93333 7.1696L4.54933 3.536C4.56996 3.41584 4.54123 3.29255 4.46947 3.19323C4.39771 3.09391 4.28878 3.02672 4.16667 3.00642C4.04455 2.98612 3.91924 3.01439 3.8183 3.085C3.71737 3.15561 3.64907 3.26279 3.62844 3.38294L3.00622 7.05634C3.00218 7.08166 3.0001 7.10724 3 7.13287C3.00112 7.98662 3.31712 8.81096 3.88931 9.45278C4.46149 10.0946 5.25097 10.5103 6.11111 10.6226V17.5408C6.11111 17.6626 6.16028 17.7794 6.24779 17.8655C6.33531 17.9516 6.45401 18 6.57778 18C6.70155 18 6.82024 17.9516 6.90776 17.8655C6.99528 17.7794 7.04444 17.6626 7.04444 17.5408V10.6226C7.90459 10.5103 8.69407 10.0946 9.26625 9.45278C9.83843 8.81096 10.1544 7.98662 10.1556 7.13287C10.1555 7.10724 10.1534 7.08166 10.1493 7.05634L9.52711 3.38294Z" fill="#333333"/>
</svg>
