<?xml version="1.0" encoding="utf-8"?><svg viewBox="0 0 48 48" xmlns="http://www.w3.org/2000/svg" xmlns:xlink="http://www.w3.org/1999/xlink"><style>:root>svg{display:none}:root>svg:target{display:block}</style><svg viewBox="0 0 21 20" id="about" xmlns="http://www.w3.org/2000/svg"><path d="M5.303 3.35a1 1 0 01.76-.35h8.54a1 1 0 01.76.35l2.61 3.044a1.5 1.5 0 01.36.976v.255a2.376 2.376 0 01-4.25 1.458 2.371 2.371 0 01-2.918.676 2.37 2.37 0 01-.832-.676 2.37 2.37 0 01-2.919.676 2.37 2.37 0 01-.83-.676 2.375 2.375 0 01-4.25-1.458V7.37a1.5 1.5 0 01.36-.976l2.61-3.044zm1.78 4.275a1.375 1.375 0 002.75 0 .5.5 0 111 0 1.375 1.375 0 102.75 0 .5.5 0 011 0 1.375 1.375 0 102.75 0V7.37a.5.5 0 00-.12-.325L14.603 4h-8.54l-2.61 3.045a.5.5 0 00-.12.325v.255a1.375 1.375 0 002.75 0 .5.5 0 111 0zM3.833 10.5a.5.5 0 01.5.5v6h3.5v-4a1 1 0 011-1h3a1 1 0 011 1v4h3.5v-6a.5.5 0 011 0v6h.5a.5.5 0 010 1h-15a.5.5 0 010-1h.5v-6a.5.5 0 01.5-.5zm5 6.5h3v-4h-3v4z"/></svg><svg viewBox="0 0 16 16" id="bell" xmlns="http://www.w3.org/2000/svg"><g clip-path="url(#abclip0_3015_982)"><path d="M4 5.333a4 4 0 018 0c0 4.667 2 6 2 6H2s2-1.333 2-6zM6.867 14a1.293 1.293 0 002.266 0M2.667 1.333c-.8 1.134-1.334 2.467-1.334 4M14.667 5.333c0-1.533-.534-2.866-1.334-4"/></g><defs><clipPath id="abclip0_3015_982"><path d="M0 0h16v16H0z"/></clipPath></defs></svg><svg viewBox="0 0 24 24" id="block-icon" xmlns="http://www.w3.org/2000/svg"><path d="M12 22s8-4 8-10V5l-8-3-8 3v7c0 6 8 10 8 10zM14.5 9l-5 5M9.5 9l5 5"/></svg><svg viewBox="0 0 21 20" id="call" xmlns="http://www.w3.org/2000/svg"><path d="M2.158 15.447h17.018c.13 0 .255-.05.347-.14a.473.473 0 000-.677.497.497 0 00-.347-.14h-.818v-1.437a7.408 7.408 0 00-2.085-5.129 7.78 7.78 0 00-5.115-2.355V3.957h1.472c.13 0 .255-.05.347-.14a.473.473 0 000-.677.497.497 0 00-.347-.14H8.703c-.13 0-.255.05-.347.14a.473.473 0 000 .677c.092.09.217.14.347.14h1.473V5.57A7.78 7.78 0 005.06 7.924a7.408 7.408 0 00-2.084 5.13v1.435h-.818c-.13 0-.256.05-.348.14a.473.473 0 000 .678c.092.09.217.14.348.14zm1.8-2.394c0-1.735.706-3.4 1.965-4.626a6.797 6.797 0 014.744-1.916c1.779 0 3.486.689 4.744 1.916a6.461 6.461 0 011.965 4.626v1.436H3.958v-1.436zm15.709 4.468a.473.473 0 01-.144.339.497.497 0 01-.347.14H2.158a.497.497 0 01-.348-.14.473.473 0 010-.677.497.497 0 01.348-.14h17.018c.13 0 .255.05.347.14.092.09.144.211.144.338z"/></svg><svg viewBox="0 0 48 48" id="call-person-1" xmlns="http://www.w3.org/2000/svg"><g clip-path="url(#aeclip0_3009_1915)"><path d="M13.508 2.666a6.953 6.953 0 00-6.945 6.945 6.953 6.953 0 006.945 6.946 6.953 6.953 0 006.945-6.946 6.953 6.953 0 00-6.945-6.945zm0 12.347a5.408 5.408 0 01-5.402-5.402 5.408 5.408 0 015.402-5.402 5.408 5.408 0 015.402 5.402 5.408 5.408 0 01-5.402 5.402zM13.414 17.998l-4.476-1.27v6.345l4.476-1.182 4.476 1.182v-6.345l-4.476 1.27zm2.933 3.071l-2.933-.774-2.932.774v-2.298l2.932.832 2.933-.832v2.298z"/><path d="M34.665 20.042l-4.887 4.887-4.567-4.566a4.856 4.856 0 00-3.456-1.431H19.59v1.544l2.163-.001h.001c.893 0 1.733.348 2.365.98l5.657 5.657 5.527-5.526h3.238l-8.841 9.845-7.023-6.358v21.384H7.244v-8.995H8.77v7.1h9.278v-7.1h3.858v-6.02h-3.858v-.77H8.77v.77H7.244v-4.63H5.7v6.174h3.07v2.933H3.102V23.822c0-1.843 1.5-3.343 3.343-3.344v-1.543a4.893 4.893 0 00-4.886 4.887v13.64H5.7V48h18.52V28.552l5.593 5.063 12.19-13.573h-7.339zM18.048 32.986h2.315v2.933h-2.315v-2.933zm-7.734-.771h6.19v10.804h-6.19V32.215z"/><path d="M45.237 17.602c-.371-4.389-3.878-7.895-8.259-8.252V8.033h-1.543v1.323c-4.349.388-7.82 3.88-8.19 8.246H25.97v1.544h20.476v-1.544h-1.208zm-16.442 0c.386-3.78 3.578-6.74 7.446-6.74s7.06 2.96 7.446 6.74H28.795z"/><path d="M30.75 16.781h1.543a3.045 3.045 0 013.036-3.047V12.19c-2.525 0-4.579 2.06-4.579 4.591zM45.826 3.24h-1.544v1.544h1.544V3.24zM45.826 9.416h-1.544v1.39h1.544v-1.39zM45.826 6.328h-1.544v1.544h1.544V6.328zM42.893 4.784H41.35v1.544h1.543V4.784zM42.893 1.7H41.35v1.543h1.543V1.699zM39.808 3.088h-1.543V4.63h1.543V3.088zM39.808 0h-1.543v1.543h1.543V0z"/></g><defs><clipPath id="aeclip0_3009_1915"><path d="M0 0h48v48H0z"/></clipPath></defs></svg><svg viewBox="0 0 48 48" id="call-person-2" xmlns="http://www.w3.org/2000/svg"><path d="M19.5 18.75a.75.75 0 100-1.5.75.75 0 000 1.5zM28.5 18.75a.75.75 0 100-1.5.75.75 0 000 1.5zM24 25.5c-.827 0-1.5-.673-1.5-1.5H21c0 1.654 1.346 3 3 3s3-1.346 3-3h-1.5c0 .827-.673 1.5-1.5 1.5zM30.144 8L31.261 7A9.765 9.765 0 0024 3.75v1.5A8.265 8.265 0 0130.144 8zM31.78 10.75l1.414-.5a9.711 9.711 0 00-.752-1.626l-1.297.753c.253.436.467.899.636 1.373zM9.808 29.558l1.385-.575A39.042 39.042 0 018.43 17.927l-1.492.145a40.532 40.532 0 002.87 11.486zM8.259 14.985l-1.5.03c.01.517.03 1.027.06 1.529l1.497-.088a35.882 35.882 0 01-.057-1.47z"/><path d="M36.842 35.467l-7.694-3.149a2.24 2.24 0 01-1.398-2.082v-.539a13.88 13.88 0 004.393-4.948h.107A3.754 3.754 0 0036 21c0-.943-.364-1.813-.962-2.48A8.199 8.199 0 0036.75 13.5C36.75 6.47 31.03.75 24 .75c-2.944 0-5.65 1.012-7.81 2.694-.688-.29-1.34-.444-1.94-.444-3.9 0-10.5 2.37-10.5 11.25 0 9.135 2.995 16.142 4.492 19.073a5.207 5.207 0 00-.487 4.286A11.857 11.857 0 003.75 46.5v.75h40.5v-.75c0-4.861-2.908-9.193-7.408-11.033zm1.375 2.431a26.055 26.055 0 00-1.45 7.852H11.22a26.056 26.056 0 00-.61-4.96c.654.293 1.377.46 2.139.46h1.322l.322 1.5h19.213l1.376-6.424 1.292.529c.693.283 1.342.634 1.942 1.043zm-17.221-3.873l1.848 1.32-2.353 2.352-.143-.322A6.703 6.703 0 0021 34.5c0-.163-.003-.316-.005-.475zm-1.62 4.855l.633 1.423 3.241-3.242v4.189h-7.643l-.029-.133a6.752 6.752 0 003.798-2.237zm5.374-1.819l3.241 3.242 2.572-5.785 3.01 1.231-1.18 5.501H24.75v-4.189zm4.424-3.111l-1.665 3.747-2.352-2.352 2.781-1.986c.202.132.413.254.642.347l.594.243zm-2.314-1.665L24 34.328l-3.064-2.188a26.79 26.79 0 00-.193-2.107c.93.586 1.942 1.069 3.02 1.429l.237.079.237-.08c.71-.236 1.391-.526 2.04-.864.058.613.258 1.19.583 1.688zM24 29.957a12.395 12.395 0 01-8.25-11.694v-1.018a10.745 10.745 0 007.759-3.637.294.294 0 01.214-.108c.152 0 .277.124.277.277v3.473h.877a8.48 8.48 0 006.952-3.629c.026-.036.095-.121.198-.121.123 0 .223.1.223.223v4.54c0 5.267-3.305 9.935-8.25 11.693zm-9.709-10.653c.1 1.34.397 2.633.855 3.854A2.247 2.247 0 0113.5 21c0-.67.304-1.28.791-1.696zm18.563 3.854a13.89 13.89 0 00.855-3.854c.487.416.791 1.026.791 1.696 0 1.03-.7 1.892-1.646 2.158zM35.25 13.5c0 1.5-.499 2.94-1.412 4.118-.03-.013-.058-.028-.088-.042v-3.853c0-.95-.773-1.723-1.723-1.723a1.75 1.75 0 00-1.428.764 6.979 6.979 0 01-5.099 2.958v-1.945c0-.98-.797-1.777-1.777-1.777-.507 0-.996.225-1.34.617a9.242 9.242 0 01-6.935 3.133H14.25v1.827l-.088.041A6.7 6.7 0 0112.75 13.5c0-6.203 5.047-11.25 11.25-11.25S35.25 7.297 35.25 13.5zm-21-9c.202 0 .42.034.649.088A12.7 12.7 0 0011.25 13.5c0 1.828.604 3.584 1.711 5.019A3.716 3.716 0 0012 21a3.754 3.754 0 003.75 3.75h.107a13.902 13.902 0 003.113 3.957c.355 1.441.53 3.337.53 5.793a5.256 5.256 0 01-5.25 5.25h-1.5A3.754 3.754 0 019 36a3.754 3.754 0 013.75-3.75A3.754 3.754 0 0116.5 36v.75H18V36a5.256 5.256 0 00-5.25-5.25 5.22 5.22 0 00-3.46 1.312C7.785 28.96 5.25 22.514 5.25 14.25c0-9.476 8.079-9.75 9-9.75zM8.447 39c.07.098.141.195.216.288a24.6 24.6 0 011.059 6.462H5.277A10.359 10.359 0 018.447 39zm29.82 6.75c.07-2.33.467-4.627 1.19-6.854a10.368 10.368 0 013.266 6.854h-4.456z"/></svg><svg viewBox="0 0 48 48" id="call-person-3" xmlns="http://www.w3.org/2000/svg"><g clip-path="url(#agclip0_3009_1179)"><path d="M30.38 38.129a1.291 1.291 0 01-.26 1.743c-.23.183-.52.284-.814.284h-3.67c-.908 0-.908 1.406 0 1.406h3.67a2.7 2.7 0 002.23-4.236c-.487-.7-1.672.06-1.156.803z"/><path d="M34.492 18.495l-3.78 3.78a1.981 1.981 0 00-2.12.54l-1.691 1.915a2.098 2.098 0 00-1.017-.66V10.915a6.928 6.928 0 004.132-2.889c.307-.459-.033-1.094-.585-1.094H26.05v-.06c0-1.152.45-2.235 1.266-3.05.429-.428.116-1.202-.496-1.202h-2.243V.681c0-.908-1.407-.908-1.407 0v1.938h-2.243c-.605 0-.93.769-.497 1.202a4.282 4.282 0 011.267 3.05v.06h-3.381c-.552 0-.892.635-.585 1.094a6.928 6.928 0 004.132 2.89v2.944c0 .907 1.407.907 1.407 0v-2.752c.4.014.806.014 1.207 0v12.879H23.27v-6.75c0-.908-1.407-.908-1.407 0v6.835c-.427.124-.799.38-1.068.724l-1.75-1.98c-1.655-1.875-4.567.696-2.91 2.571l3.634 4.114c-1.504.64-2.308 1.988-3.275 3.255-.823 1.08-1.778 2.132-2.473 3.304-.064-.02-9.797-.03-9.797-.03a4.044 4.044 0 00-4.04 4.04 4.044 4.044 0 004.04 4.039H5.65c.285.739 1 1.266 1.838 1.266h3.377c.838 0 1.553-.527 1.837-1.266h1.117c.908 0 .908-1.407 0-1.407h-1.117c-.284-.74-1-1.267-1.837-1.267H7.488c-.838 0-1.554.528-1.838 1.267H4.224a2.635 2.635 0 01-2.633-2.633 2.635 2.635 0 012.633-2.632h9.217a5.505 5.505 0 001.898 5.741 5.554 5.554 0 002.621 1.136l-.74.987c-.817 1.09-.008 2.7 1.353 2.7h7.064c.908 0 .908-1.407 0-1.407h-7.064a.282.282 0 01-.228-.449l1.326-1.768h8.547l1.443 1.759a.281.281 0 01-.22.458h-.427c-.908 0-.908 1.407 0 1.407h.428c.66 0 1.246-.37 1.528-.967a1.672 1.672 0 00-.221-1.79l-.747-.912a5.553 5.553 0 002.744-1.154 5.506 5.506 0 001.876-5.826c2.388-.3 4.62-1.389 6.329-3.097l4.65-4.65c3.11-3.11 2.907-8.482-.34-11.438-2.92-2.659-8.011-2.45-10.77.33zM22.348 4.027h3.051a5.68 5.68 0 00-.756 2.846v.06h-1.54v-.06a5.68 5.68 0 00-.755-2.846zm1.16 5.678c-1.36 0-2.65-.495-3.647-1.366h8.024a5.533 5.533 0 01-3.646 1.366h-.731zM7.488 42.841h3.377a.563.563 0 010 1.126H7.488a.563.563 0 010-1.126zM27.53 26.143l2.117-2.397c.458-.518 1.26.19.802.709L27.671 27.6c-.049-.301-.35-1.222-.14-1.457zm-5.073-.75h2.832c.348 0 .64.248.695.591l.548 3.388h-5.317l.547-3.388a.701.701 0 01.695-.592zm-5.268-.938c-.458-.518.344-1.228.802-.709l2.117 2.397c.312.352.028 1.084-.049 1.56l-2.87-3.248zm14.682 17.62a4.14 4.14 0 01-2.564.894H18.778a4.14 4.14 0 01-2.564-.894 4.099 4.099 0 01-.79-5.597l3.74-4.902c.38-.499.982-.797 1.61-.797h6.537c.628 0 1.23.298 1.611.797l3.739 4.902a4.099 4.099 0 01-.79 5.597zM44.605 28.61l-4.65 4.65a9.464 9.464 0 01-5.928 2.74 5.638 5.638 0 00-.24-.366l-3.746-4.91a3.454 3.454 0 00-2.073-1.285l-.007-.042 3.543-4.01a1.933 1.933 0 00.268-2.18l3.715-3.716c2.455-2.455 6.663-2.455 9.118 0 2.457 2.457 2.456 6.663 0 9.12z"/></g><defs><clipPath id="agclip0_3009_1179"><path d="M0 0h48v48H0z"/></clipPath></defs></svg><svg viewBox="0 0 48 48" id="call-person-4" xmlns="http://www.w3.org/2000/svg"><g clip-path="url(#ahclip0_3009_1233)"><path d="M17.65 14.72V.8a.8.8 0 00-.8-.8h-4.8a.8.8 0 00-.8.8v13.92a9.424 9.424 0 00-4.8 8.248V47.2a.8.8 0 00.8.8h14.4a.8.8 0 00.8-.8V22.969a9.425 9.425 0 00-4.8-8.249zm3.2 31.68H8.05V22.968a7.837 7.837 0 014.358-7.052.8.8 0 00.443-.716V1.6h3.2v13.6a.8.8 0 00.442.716 7.837 7.837 0 014.358 7.052V46.4z"/><path d="M16.85 4h-4.8v1.6h4.8V4zM41.475 25.894l-1.432-10.008a.8.8 0 00-.792-.686h-9.6a.802.802 0 00-.793.686l-1.431 9.964a6.759 6.759 0 00.14 2.702l.14.586a6.943 6.943 0 006.742 5.262h.012a6.953 6.953 0 006.736-5.232l.131-.558a6.764 6.764 0 00.147-2.716zm-1.699 2.33l-.132.56a5.35 5.35 0 01-5.183 4.016h-.01a5.34 5.34 0 01-5.189-4.04l-.14-.594a5.17 5.17 0 01-.111-2.084l1.333-9.282h8.213l1.335 9.326a5.19 5.19 0 01-.116 2.098z"/><path d="M35.248 33.6h-1.6V44h1.6V33.6z"/><path d="M36.052 43.2h-3.2c-2.206 0-4 1.794-4 4a.8.8 0 00.8.8h9.6a.8.8 0 00.8-.8c0-2.206-1.795-4-4-4zm-5.464 3.2c.33-.931 1.221-1.6 2.264-1.6h3.2c1.043 0 1.932.669 2.263 1.6h-7.727zM40.849 26.4h-12.8V28h12.8v-1.6zM16.85 11.2h-4.8v1.6h4.8v-1.6zM18.45 24.8h-8a.8.8 0 00-.8.8V40a.8.8 0 00.8.8h8a.8.8 0 00.8-.8V25.6a.8.8 0 00-.8-.8zm-.8 14.4h-6.4V26.4h6.4v12.8z"/></g><defs><clipPath id="ahclip0_3009_1233"><path d="M0 0h48v48H0z"/></clipPath></defs></svg><svg viewBox="0 0 16 16" id="cart-action" xmlns="http://www.w3.org/2000/svg"><path d="M14 2H2a.667.667 0 00-.666.667v2c0 .368.298.666.667.666h12a.667.667 0 00.666-.666v-2A.667.667 0 0014.001 2zM2.666 5.333v7.334A1.333 1.333 0 003.999 14h8a1.334 1.334 0 001.334-1.333V5.333M6.666 8h2.667"/></svg><svg viewBox="0 0 17 16" id="delete-file" xmlns="http://www.w3.org/2000/svg"><path d="M8.5 14.667a6.667 6.667 0 100-13.334 6.667 6.667 0 000 13.334zM10.5 6l-4 4M6.5 6l4 4"/></svg><svg viewBox="0 0 16 16" id="dots" xmlns="http://www.w3.org/2000/svg"><path d="M8 8.667a.667.667 0 100-1.334.667.667 0 000 1.334zM12.667 8.667a.667.667 0 100-1.334.667.667 0 000 1.334zM3.333 8.667a.667.667 0 100-1.334.667.667 0 000 1.334z"/></svg><svg viewBox="0 0 16 16" id="edit" xmlns="http://www.w3.org/2000/svg"><g clip-path="url(#alclip0_3009_9193)"><path d="M11.333 2a1.898 1.898 0 011.376-.671 1.912 1.912 0 011.427.555 1.886 1.886 0 01.55 1.421A1.875 1.875 0 0114 4.667l-9 9-3.667 1 1-3.667 9-9zM10 3.333L12.667 6"/></g><defs><clipPath id="alclip0_3009_9193"><path d="M0 0h16v16H0z"/></clipPath></defs></svg><svg viewBox="0 0 24 24" id="edit-admin" xmlns="http://www.w3.org/2000/svg"><path d="M17 3a2.847 2.847 0 012.064-1.007 2.868 2.868 0 012.14.834 2.827 2.827 0 01.825 2.131A2.814 2.814 0 0121 7L7.5 20.5 2 22l1.5-5.5L17 3zM15 5l4 4"/></svg><svg viewBox="0 0 24 24" id="edit-icon" xmlns="http://www.w3.org/2000/svg"><path d="M12 22l2-1 2 1 2-1 2 1V2l-2 1-2-1-2 1-2-1-2 1-2-1-2 1-2-1v10M12.5 8H8M16.5 8H16"/><path d="M10.4 12.6a2.121 2.121 0 013 3L8 21l-4 1 1-4 5.4-5.4z"/></svg><svg viewBox="0 0 48 48" id="fav-off-lg" xmlns="http://www.w3.org/2000/svg"><rect width="48" height="48" rx="16"/><path d="M28.688 15c-1.936 0-3.631.832-4.688 2.24-1.057-1.407-2.752-2.24-4.688-2.24a5.819 5.819 0 00-5.812 5.813c0 6.562 9.73 11.874 10.145 12.093a.75.75 0 00.71 0c.415-.22 10.145-5.531 10.145-12.093A5.819 5.819 0 0028.687 15zM24 31.387c-1.712-.997-9-5.541-9-10.575a4.318 4.318 0 014.313-4.312c1.823 0 3.354.971 3.993 2.531a.75.75 0 001.388 0c.64-1.563 2.17-2.531 3.994-2.531A4.318 4.318 0 0133 20.813c0 5.025-7.29 9.576-9 10.575z"/></svg><svg viewBox="0 0 48 48" id="fav-on-lg" xmlns="http://www.w3.org/2000/svg"><rect x="1" y="1" width="46" height="46" rx="15"/><rect x="1" y="1" width="46" height="46" rx="15"/><g clip-path="url(#apclip0_853_3417)"><path d="M34.5 20.813c0 6.562-9.73 11.874-10.145 12.093a.75.75 0 01-.71 0c-.415-.22-10.145-5.531-10.145-12.093A5.819 5.819 0 0119.313 15c1.935 0 3.63.832 4.687 2.24 1.057-1.407 2.752-2.24 4.688-2.24a5.819 5.819 0 015.812 5.813z"/></g><defs><clipPath id="apclip0_853_3417"><path transform="translate(12 12)" d="M0 0h24v24H0z"/></clipPath></defs></svg><svg viewBox="0 0 20 20" id="menu" xmlns="http://www.w3.org/2000/svg"><path fill-rule="evenodd" clip-rule="evenodd" d="M2.535 14c0-.257.208-.465.465-.465h10a.465.465 0 010 .93H3A.465.465 0 012.535 14zM2.535 11c0-.257.208-.465.465-.465h14a.465.465 0 010 .93H3A.465.465 0 012.535 11zM14.535 14c0-.257.208-.465.465-.465h2a.465.465 0 010 .93h-2a.465.465 0 01-.465-.465zM14.535 17c0-.257.208-.465.465-.465h2a.465.465 0 010 .93h-2a.465.465 0 01-.465-.465zM2.535 17c0-.257.208-.465.465-.465h10a.465.465 0 010 .93H3A.465.465 0 012.535 17z"/><path fill-rule="evenodd" clip-rule="evenodd" d="M10 5.465A5.535 5.535 0 004.465 11h-.93a6.465 6.465 0 1112.93 0h-.93A5.535 5.535 0 0010 5.465z"/><path fill-rule="evenodd" clip-rule="evenodd" d="M8.931 7.116a.465.465 0 01-.257.606 3.55 3.55 0 00-1.676 1.41.465.465 0 11-.79-.491A4.48 4.48 0 018.326 6.86a.465.465 0 01.606.256zM10 4.465A.535.535 0 009.465 5h-.93a1.465 1.465 0 012.93 0h-.93A.535.535 0 0010 4.465z"/></svg><svg viewBox="0 0 10 2" id="minus" xmlns="http://www.w3.org/2000/svg"><path d="M9 1H1"/></svg><svg viewBox="0 0 24 24" id="part-icon" xmlns="http://www.w3.org/2000/svg"><path d="M3 12h18M8 8l4-4 4 4M16 16l-4 4-4-4"/></svg><svg viewBox="0 0 10 10" id="plus" xmlns="http://www.w3.org/2000/svg"><path d="M5 1v8M9 5H1"/></svg><svg viewBox="0 0 20 20" id="profile" xmlns="http://www.w3.org/2000/svg"><path fill-rule="evenodd" clip-rule="evenodd" d="M6.97 12.94a3.12 3.12 0 00-2.15.847 2.785 2.785 0 00-.88 2.016c0 .31.129.612.367.838.238.228.566.359.913.359h10.5c.347 0 .675-.131.913-.358.238-.227.367-.529.367-.839 0-.752-.313-1.477-.88-2.016a3.12 3.12 0 00-2.15-.847h-7zm-2.799.166A4.06 4.06 0 016.97 12h7a4.06 4.06 0 012.799 1.106 3.725 3.725 0 011.171 2.697c0 .575-.24 1.12-.658 1.52-.418.397-.98.617-1.562.617H5.22c-.582 0-1.144-.22-1.562-.618A2.097 2.097 0 013 15.803c0-1.016.424-1.986 1.171-2.697zM10.47 3.94a2.53 2.53 0 100 5.06 2.53 2.53 0 000-5.06zM7 6.47a3.47 3.47 0 116.94 0 3.47 3.47 0 01-6.94 0z"/></svg><svg viewBox="0 0 16 16" id="remove" xmlns="http://www.w3.org/2000/svg"><path d="M13.334 2.667L2.667 13.333M2.667 2.667l10.667 10.666"/></svg><svg viewBox="0 0 10 10" id="star" xmlns="http://www.w3.org/2000/svg"><path d="M5 0l1.545 3.13L10 3.635 7.5 6.07l.59 3.44L5 7.885 1.91 9.51l.59-3.44L0 3.635l3.455-.505L5 0z"/></svg><svg viewBox="0 0 16 16" id="stop" xmlns="http://www.w3.org/2000/svg"><g clip-path="url(#axclip0_3025_2454)"><path d="M8 14.667A6.667 6.667 0 108 1.333a6.667 6.667 0 000 13.334zM3.267 3.267l9.466 9.466"/></g><defs><clipPath id="axclip0_3025_2454"><path d="M0 0h16v16H0z"/></clipPath></defs></svg><svg viewBox="0 0 24 24" id="stop-lg" xmlns="http://www.w3.org/2000/svg"><path d="M12 22c5.523 0 10-4.477 10-10S17.523 2 12 2 2 6.477 2 12s4.477 10 10 10zM4.9 4.9l14.2 14.2"/></svg><svg viewBox="0 0 24 24" id="tea-icon" xmlns="http://www.w3.org/2000/svg"><path d="M8 14A6 6 0 108 2a6 6 0 000 12zM18.09 10.37A6 6 0 1110.34 18"/><path d="M7 6h1v4M16.71 13.88l.7.71-2.82 2.82"/></svg><svg viewBox="0 0 16 16" id="update" xmlns="http://www.w3.org/2000/svg"><path d="M14 8a6 6 0 00-6-6 6.5 6.5 0 00-4.493 1.827L2 5.333"/><path d="M2 2v3.333h3.333M2 8a6 6 0 006 6 6.5 6.5 0 004.493-1.827L14 10.667"/><path d="M10.667 10.667H14V14"/></svg><svg viewBox="0 0 16 16" id="upload" xmlns="http://www.w3.org/2000/svg"><path d="M14 10v2.667A1.334 1.334 0 0112.667 14H3.333A1.334 1.334 0 012 12.667V10M11.333 5.333L8 2 4.667 5.333M8 2.667V10"/></svg></svg>