<svg width="20" height="20" viewBox="0 0 20 20" fill="none" xmlns="http://www.w3.org/2000/svg">
<path d="M16.8657 5.58334L14.4167 3.13429C14.3306 3.0483 14.2139 3 14.0922 3C13.9705 3 13.8538 3.0483 13.7677 3.13429L6.42053 10.4814C6.33439 10.5675 6.28594 10.6842 6.28583 10.8059V13.255C6.28583 13.3768 6.33421 13.4936 6.42033 13.5797C6.50644 13.6658 6.62324 13.7142 6.74503 13.7142H9.19407C9.31582 13.7141 9.43254 13.6656 9.51857 13.5795L16.8657 6.23234C16.9517 6.14624 17 6.02953 17 5.90784C17 5.78615 16.9517 5.66944 16.8657 5.58334ZM9.00351 12.7958H7.20422V10.9965L12.2554 5.94534L14.0547 7.74462L9.00351 12.7958ZM14.7044 7.09486L12.9051 5.29558L14.0922 4.10855L15.8914 5.90784L14.7044 7.09486ZM16.3881 10.1937V16.9285C16.3881 17.2127 16.2753 17.4852 16.0743 17.6862C15.8734 17.8871 15.6009 18 15.3167 18H3.07146C2.78729 18 2.51476 17.8871 2.31382 17.6862C2.11289 17.4852 2 17.2127 2 16.9285V4.68331C2 4.39915 2.11289 4.12662 2.31382 3.92568C2.51476 3.72474 2.78729 3.61186 3.07146 3.61186H9.80633C9.92812 3.61186 10.0449 3.66024 10.131 3.74635C10.2172 3.83247 10.2655 3.94927 10.2655 4.07105C10.2655 4.19284 10.2172 4.30964 10.131 4.39575C10.0449 4.48187 9.92812 4.53025 9.80633 4.53025H3.07146C3.03086 4.53025 2.99193 4.54638 2.96322 4.57508C2.93452 4.60379 2.91839 4.64272 2.91839 4.68331V16.9285C2.91839 16.9691 2.93452 17.0081 2.96322 17.0368C2.99193 17.0655 3.03086 17.0816 3.07146 17.0816H15.3167C15.3573 17.0816 15.3962 17.0655 15.4249 17.0368C15.4536 17.0081 15.4698 16.9691 15.4698 16.9285V10.1937C15.4698 10.0719 15.5181 9.95508 15.6042 9.86897C15.6904 9.78285 15.8072 9.73447 15.9289 9.73447C16.0507 9.73447 16.1675 9.78285 16.2536 9.86897C16.3398 9.95508 16.3881 10.0719 16.3881 10.1937Z" fill="#2F80ED"/>
</svg>
