<svg width="40" height="40" viewBox="0 0 40 40" fill="none" xmlns="http://www.w3.org/2000/svg">
<path d="M17.326 26.5H17.3253H11.75C11.4185 26.5 11.1005 26.3683 10.8661 26.1339C10.6317 25.8995 10.5 25.5815 10.5 25.25V13.25C10.5 12.9185 10.6317 12.6005 10.8661 12.3661C11.1005 12.1317 11.4185 12 11.75 12H28.25C28.5815 12 28.8995 12.1317 29.1339 12.3661C29.3683 12.6005 29.5 12.9185 29.5 13.25V25.25C29.5 25.5815 29.3683 25.8995 29.1339 26.1339C28.8995 26.3683 28.5815 26.5 28.25 26.5L22.6747 26.5L22.674 26.5C22.6306 26.5005 22.588 26.5123 22.5506 26.5342C22.5133 26.556 22.4823 26.587 22.4607 26.6243C22.4605 26.6245 22.4604 26.6248 22.4602 26.625L21.0717 28.8971L21.0715 28.8974C20.96 29.0821 20.8026 29.2347 20.6146 29.3405C20.4267 29.4464 20.2145 29.5018 19.9988 29.5013C19.7831 29.5009 19.5712 29.4446 19.3836 29.338C19.1961 29.2314 19.0394 29.078 18.9286 28.8929L18.9283 28.8924L17.5398 26.625C17.5396 26.6248 17.5395 26.6245 17.5393 26.6243C17.5176 26.587 17.4867 26.556 17.4494 26.5342L17.4179 26.5881L17.4494 26.5342C17.412 26.5123 17.3694 26.5005 17.326 26.5ZM22.6746 25.5H22.6747H28.25C28.3163 25.5 28.3799 25.4737 28.4268 25.4268C28.4737 25.3799 28.5 25.3163 28.5 25.25V13.25C28.5 13.1837 28.4737 13.1201 28.4268 13.0732L28.3826 13.1174L28.4268 13.0732C28.3799 13.0263 28.3163 13 28.25 13H11.75C11.6837 13 11.6201 13.0263 11.5732 13.0732C11.5263 13.1201 11.5 13.1837 11.5 13.25V25.2509C11.5 25.3172 11.5263 25.3808 11.5732 25.4277C11.6201 25.4746 11.6837 25.5009 11.75 25.5009H17.3242C17.5397 25.5015 17.7514 25.5575 17.939 25.6633C18.1267 25.7692 18.284 25.9215 18.396 26.1056L18.396 26.1057L19.7828 28.3751C19.7829 28.3753 19.7831 28.3756 19.7832 28.3758C19.8052 28.4134 19.8366 28.4446 19.8743 28.4663L19.9055 28.4121L19.8743 28.4663C19.9122 28.4882 19.9553 28.4997 19.9991 28.4997C20.0429 28.4997 20.0859 28.4882 20.1238 28.4663L20.0926 28.4121L20.1238 28.4663C20.1616 28.4446 20.193 28.4133 20.2149 28.3757C20.2151 28.3755 20.2152 28.3753 20.2153 28.3751L21.603 26.1029L21.6032 26.1027C21.7147 25.9184 21.8719 25.7661 22.0597 25.6605C22.2474 25.5549 22.4592 25.4996 22.6746 25.5ZM23.5 17.75C23.5 17.8826 23.4473 18.0098 23.3536 18.1036C23.2598 18.1973 23.1326 18.25 23 18.25H17C16.8674 18.25 16.7402 18.1973 16.6464 18.1036C16.5527 18.0098 16.5 17.8826 16.5 17.75C16.5 17.6174 16.5527 17.4902 16.6464 17.3964C16.7402 17.3027 16.8674 17.25 17 17.25H23C23.1326 17.25 23.2598 17.3027 23.3536 17.3964C23.4473 17.4902 23.5 17.6174 23.5 17.75ZM23.5 20.75C23.5 20.8826 23.4473 21.0098 23.3536 21.1036C23.2598 21.1973 23.1326 21.25 23 21.25H17C16.8674 21.25 16.7402 21.1973 16.6464 21.1036C16.5527 21.0098 16.5 20.8826 16.5 20.75C16.5 20.6174 16.5527 20.4902 16.6464 20.3964C16.7402 20.3027 16.8674 20.25 17 20.25H23C23.1326 20.25 23.2598 20.3027 23.3536 20.3964C23.4473 20.4902 23.5 20.6174 23.5 20.75Z" fill="white" stroke="white" stroke-width="0.125"/>
</svg>
