<svg width="40" height="40" viewBox="0 0 40 40" fill="none" xmlns="http://www.w3.org/2000/svg">
<mask id="path-2-inside-1_3001_666" fill="white">
<path fill-rule="evenodd" clip-rule="evenodd" d="M11 24.7714C11 24.4579 11.251 24.2039 11.5606 24.2039L23.6169 24.2039C23.9265 24.2039 24.1775 24.4579 24.1775 24.7714C24.1775 25.0848 23.9265 25.3388 23.6169 25.3388L11.5606 25.3388C11.251 25.3388 11 25.0848 11 24.7714Z"/>
<path fill-rule="evenodd" clip-rule="evenodd" d="M11 21.1102C11 20.7968 11.251 20.5427 11.5606 20.5427L28.4394 20.5427C28.749 20.5427 29 20.7968 29 21.1102C29 21.4236 28.749 21.6777 28.4394 21.6777L11.5606 21.6777C11.251 21.6777 11 21.4236 11 21.1102Z"/>
<path fill-rule="evenodd" clip-rule="evenodd" d="M25.4675 24.7714C25.4675 24.4579 25.7185 24.2039 26.0281 24.2039H28.4394C28.749 24.2039 29 24.4579 29 24.7714C29 25.0848 28.749 25.3388 28.4394 25.3388H26.0281C25.7185 25.3388 25.4675 25.0848 25.4675 24.7714Z"/>
<path fill-rule="evenodd" clip-rule="evenodd" d="M25.4675 28.4325C25.4675 28.1191 25.7185 27.865 26.0281 27.865H28.4394C28.749 27.865 29 28.1191 29 28.4325C29 28.7459 28.749 29 28.4394 29H26.0281C25.7185 29 25.4675 28.7459 25.4675 28.4325Z"/>
<path fill-rule="evenodd" clip-rule="evenodd" d="M11 28.4325C11 28.1191 11.251 27.865 11.5606 27.865L23.6169 27.865C23.9265 27.865 24.1775 28.1191 24.1775 28.4325C24.1775 28.7459 23.9265 29 23.6169 29L11.5606 29C11.251 29 11 28.7459 11 28.4325Z"/>
<path fill-rule="evenodd" clip-rule="evenodd" d="M20 14.3553C16.3145 14.3553 13.3269 17.3796 13.3269 21.1102H12.2056C12.2056 16.7528 15.6953 13.2204 20 13.2204C24.3047 13.2204 27.7944 16.7528 27.7944 21.1102H26.6731C26.6731 17.3796 23.6855 14.3553 20 14.3553Z"/>
<path fill-rule="evenodd" clip-rule="evenodd" d="M18.7111 16.3706C18.8273 16.6611 18.6888 16.9919 18.4018 17.1095C17.5623 17.4535 16.8548 18.0612 16.3805 18.8314C16.2166 19.0973 15.8709 19.1785 15.6081 19.0127C15.3454 18.8469 15.2652 18.4969 15.429 18.2309C16.0273 17.2594 16.9196 16.4925 17.9811 16.0575C18.2681 15.9399 18.5949 16.0801 18.7111 16.3706Z"/>
<path fill-rule="evenodd" clip-rule="evenodd" d="M20 13.135C19.6438 13.135 19.355 13.4273 19.355 13.7879H18.2338C18.2338 12.8005 19.0245 12 20 12C20.9755 12 21.7662 12.8005 21.7662 13.7879H20.645C20.645 13.4273 20.3562 13.135 20 13.135Z"/>
</mask>
<path fill-rule="evenodd" clip-rule="evenodd" d="M11 24.7714C11 24.4579 11.251 24.2039 11.5606 24.2039L23.6169 24.2039C23.9265 24.2039 24.1775 24.4579 24.1775 24.7714C24.1775 25.0848 23.9265 25.3388 23.6169 25.3388L11.5606 25.3388C11.251 25.3388 11 25.0848 11 24.7714Z" fill="white"/>
<path fill-rule="evenodd" clip-rule="evenodd" d="M11 21.1102C11 20.7968 11.251 20.5427 11.5606 20.5427L28.4394 20.5427C28.749 20.5427 29 20.7968 29 21.1102C29 21.4236 28.749 21.6777 28.4394 21.6777L11.5606 21.6777C11.251 21.6777 11 21.4236 11 21.1102Z" fill="white"/>
<path fill-rule="evenodd" clip-rule="evenodd" d="M25.4675 24.7714C25.4675 24.4579 25.7185 24.2039 26.0281 24.2039H28.4394C28.749 24.2039 29 24.4579 29 24.7714C29 25.0848 28.749 25.3388 28.4394 25.3388H26.0281C25.7185 25.3388 25.4675 25.0848 25.4675 24.7714Z" fill="white"/>
<path fill-rule="evenodd" clip-rule="evenodd" d="M25.4675 28.4325C25.4675 28.1191 25.7185 27.865 26.0281 27.865H28.4394C28.749 27.865 29 28.1191 29 28.4325C29 28.7459 28.749 29 28.4394 29H26.0281C25.7185 29 25.4675 28.7459 25.4675 28.4325Z" fill="white"/>
<path fill-rule="evenodd" clip-rule="evenodd" d="M11 28.4325C11 28.1191 11.251 27.865 11.5606 27.865L23.6169 27.865C23.9265 27.865 24.1775 28.1191 24.1775 28.4325C24.1775 28.7459 23.9265 29 23.6169 29L11.5606 29C11.251 29 11 28.7459 11 28.4325Z" fill="white"/>
<path fill-rule="evenodd" clip-rule="evenodd" d="M20 14.3553C16.3145 14.3553 13.3269 17.3796 13.3269 21.1102H12.2056C12.2056 16.7528 15.6953 13.2204 20 13.2204C24.3047 13.2204 27.7944 16.7528 27.7944 21.1102H26.6731C26.6731 17.3796 23.6855 14.3553 20 14.3553Z" fill="white"/>
<path fill-rule="evenodd" clip-rule="evenodd" d="M18.7111 16.3706C18.8273 16.6611 18.6888 16.9919 18.4018 17.1095C17.5623 17.4535 16.8548 18.0612 16.3805 18.8314C16.2166 19.0973 15.8709 19.1785 15.6081 19.0127C15.3454 18.8469 15.2652 18.4969 15.429 18.2309C16.0273 17.2594 16.9196 16.4925 17.9811 16.0575C18.2681 15.9399 18.5949 16.0801 18.7111 16.3706Z" fill="white"/>
<path fill-rule="evenodd" clip-rule="evenodd" d="M20 13.135C19.6438 13.135 19.355 13.4273 19.355 13.7879H18.2338C18.2338 12.8005 19.0245 12 20 12C20.9755 12 21.7662 12.8005 21.7662 13.7879H20.645C20.645 13.4273 20.3562 13.135 20 13.135Z" fill="white"/>
<path d="M11.5606 24.2039L11.5606 23.2739L11.5606 24.2039ZM23.6169 24.2039V25.1339V24.2039ZM23.6169 25.3388V26.2688V25.3388ZM11.5606 25.3388L11.5606 24.4088L11.5606 25.3388ZM11.5606 20.5427L11.5606 21.4727L11.5606 20.5427ZM28.4394 20.5427V19.6127V20.5427ZM28.4394 21.6777V22.6077V21.6777ZM11.5606 21.6777L11.5606 20.7477L11.5606 21.6777ZM11.5606 27.865L11.5606 26.935L11.5606 27.865ZM23.6169 27.865V28.795V27.865ZM23.6169 29V29.93V29ZM11.5606 29L11.5606 28.07L11.5606 29ZM13.3269 21.1102V22.0402H14.2569V21.1102H13.3269ZM12.2056 21.1102H11.2756V22.0402H12.2056V21.1102ZM27.7944 21.1102V22.0402H28.7244V21.1102H27.7944ZM26.6731 21.1102H25.7431V22.0402H26.6731V21.1102ZM18.4018 17.1095L18.7545 17.9701L18.4018 17.1095ZM18.7111 16.3706L17.8476 16.7159V16.7159L18.7111 16.3706ZM16.3805 18.8314L17.1723 19.3191L16.3805 18.8314ZM15.6081 19.0127L16.1045 18.2262H16.1045L15.6081 19.0127ZM15.429 18.2309L14.6371 17.7432L15.429 18.2309ZM17.9811 16.0575L18.3337 16.9181L17.9811 16.0575ZM19.355 13.7879V14.7179H20.285V13.7879H19.355ZM18.2338 13.7879H17.3038V14.7179H18.2338V13.7879ZM21.7662 13.7879V14.7179H22.6962V13.7879H21.7662ZM20.645 13.7879H19.715V14.7179H20.645V13.7879ZM11.5606 23.2739C10.7267 23.2739 10.07 23.955 10.07 24.7714H11.93C11.93 24.9609 11.7753 25.1339 11.5606 25.1339L11.5606 23.2739ZM23.6169 23.2739L11.5606 23.2739L11.5606 25.1339L23.6169 25.1339V23.2739ZM25.1075 24.7714C25.1075 23.955 24.4508 23.2739 23.6169 23.2739V25.1339C23.4022 25.1339 23.2475 24.9609 23.2475 24.7714H25.1075ZM23.6169 26.2688C24.4508 26.2688 25.1075 25.5877 25.1075 24.7714H23.2475C23.2475 24.5818 23.4022 24.4088 23.6169 24.4088V26.2688ZM11.5606 26.2688L23.6169 26.2688V24.4088L11.5606 24.4088L11.5606 26.2688ZM10.07 24.7714C10.07 25.5877 10.7267 26.2688 11.5606 26.2688L11.5606 24.4088C11.7753 24.4088 11.93 24.5818 11.93 24.7714H10.07ZM11.5606 19.6127C10.7267 19.6127 10.07 20.2939 10.07 21.1102H11.93C11.93 21.2997 11.7753 21.4727 11.5606 21.4727L11.5606 19.6127ZM28.4394 19.6127L11.5606 19.6127L11.5606 21.4727L28.4394 21.4727V19.6127ZM29.93 21.1102C29.93 20.2939 29.2733 19.6127 28.4394 19.6127V21.4727C28.2247 21.4727 28.07 21.2997 28.07 21.1102L29.93 21.1102ZM28.4394 22.6077C29.2733 22.6077 29.93 21.9265 29.93 21.1102L28.07 21.1102C28.07 20.9207 28.2247 20.7477 28.4394 20.7477V22.6077ZM11.5606 22.6077L28.4394 22.6077V20.7477L11.5606 20.7477L11.5606 22.6077ZM10.07 21.1102C10.07 21.9265 10.7267 22.6077 11.5606 22.6077L11.5606 20.7477C11.7753 20.7477 11.93 20.9207 11.93 21.1102H10.07ZM26.0281 23.2739C25.1942 23.2739 24.5375 23.955 24.5375 24.7714H26.3975C26.3975 24.9609 26.2428 25.1339 26.0281 25.1339V23.2739ZM28.4394 23.2739H26.0281V25.1339H28.4394V23.2739ZM29.93 24.7714C29.93 23.955 29.2733 23.2739 28.4394 23.2739V25.1339C28.2247 25.1339 28.07 24.9609 28.07 24.7714H29.93ZM28.4394 26.2688C29.2733 26.2688 29.93 25.5877 29.93 24.7714H28.07C28.07 24.5818 28.2247 24.4088 28.4394 24.4088V26.2688ZM26.0281 26.2688H28.4394V24.4088H26.0281V26.2688ZM24.5375 24.7714C24.5375 25.5877 25.1943 26.2688 26.0281 26.2688V24.4088C26.2428 24.4088 26.3975 24.5818 26.3975 24.7714H24.5375ZM26.0281 26.935C25.1942 26.935 24.5375 27.6162 24.5375 28.4325H26.3975C26.3975 28.622 26.2428 28.795 26.0281 28.795V26.935ZM28.4394 26.935H26.0281V28.795H28.4394V26.935ZM29.93 28.4325C29.93 27.6162 29.2733 26.935 28.4394 26.935V28.795C28.2247 28.795 28.07 28.622 28.07 28.4325H29.93ZM28.4394 29.93C29.2733 29.93 29.93 29.2489 29.93 28.4325H28.07C28.07 28.243 28.2247 28.07 28.4394 28.07V29.93ZM26.0281 29.93H28.4394V28.07H26.0281V29.93ZM24.5375 28.4325C24.5375 29.2489 25.1943 29.93 26.0281 29.93V28.07C26.2428 28.07 26.3975 28.243 26.3975 28.4325H24.5375ZM11.5606 26.935C10.7267 26.935 10.07 27.6162 10.07 28.4325L11.93 28.4325C11.93 28.622 11.7753 28.795 11.5606 28.795L11.5606 26.935ZM23.6169 26.935L11.5606 26.935L11.5606 28.795L23.6169 28.795V26.935ZM25.1075 28.4325C25.1075 27.6162 24.4508 26.935 23.6169 26.935V28.795C23.4022 28.795 23.2475 28.622 23.2475 28.4325H25.1075ZM23.6169 29.93C24.4508 29.93 25.1075 29.2489 25.1075 28.4325H23.2475C23.2475 28.243 23.4022 28.07 23.6169 28.07V29.93ZM11.5606 29.93H23.6169V28.07L11.5606 28.07L11.5606 29.93ZM10.07 28.4325C10.07 29.2489 10.7267 29.93 11.5606 29.93L11.5606 28.07C11.7753 28.07 11.93 28.243 11.93 28.4325L10.07 28.4325ZM14.2569 21.1102C14.2569 17.8825 16.8388 15.2853 20 15.2853V13.4253C15.7903 13.4253 12.3969 16.8767 12.3969 21.1102H14.2569ZM12.2056 22.0402H13.3269V20.1802H12.2056V22.0402ZM20 12.2904C15.171 12.2904 11.2756 16.2499 11.2756 21.1102H13.1356C13.1356 17.2557 16.2195 14.1504 20 14.1504V12.2904ZM28.7244 21.1102C28.7244 16.2499 24.829 12.2904 20 12.2904V14.1504C23.7805 14.1504 26.8644 17.2557 26.8644 21.1102H28.7244ZM26.6731 22.0402H27.7944V20.1802H26.6731V22.0402ZM20 15.2853C23.1612 15.2853 25.7431 17.8825 25.7431 21.1102H27.6031C27.6031 16.8767 24.2097 13.4253 20 13.4253V15.2853ZM18.7545 17.9701C19.5209 17.656 19.8776 16.7828 19.5746 16.0252L17.8476 16.7159C17.777 16.5394 17.8568 16.3278 18.0492 16.249L18.7545 17.9701ZM17.1723 19.3191C17.5453 18.7134 18.1005 18.2381 18.7545 17.9701L18.0492 16.249C17.0242 16.669 16.1643 17.4089 15.5886 18.3437L17.1723 19.3191ZM15.1118 19.7992C15.8163 20.2438 16.7396 20.0217 17.1723 19.3191L15.5886 18.3437C15.6937 18.173 15.9255 18.1132 16.1045 18.2262L15.1118 19.7992ZM14.6371 17.7432C14.2085 18.4392 14.4141 19.3589 15.1118 19.7992L16.1045 18.2262C16.2766 18.3349 16.3219 18.5546 16.2208 18.7186L14.6371 17.7432ZM17.6285 15.1969C16.3815 15.7079 15.3368 16.6072 14.6371 17.7432L16.2208 18.7186C16.7179 17.9117 17.4578 17.277 18.3337 16.9181L17.6285 15.1969ZM19.5746 16.0252C19.2695 15.2622 18.4008 14.8805 17.6285 15.1969L18.3337 16.9181C18.1354 16.9993 17.9204 16.8979 17.8476 16.7159L19.5746 16.0252ZM20.285 13.7879C20.285 13.9302 20.168 14.065 20 14.065V12.205C19.1195 12.205 18.425 12.9244 18.425 13.7879H20.285ZM18.2338 14.7179H19.355V12.8579H18.2338V14.7179ZM20 11.07C18.5003 11.07 17.3038 12.2975 17.3038 13.7879H19.1638C19.1638 13.3034 19.5488 12.93 20 12.93V11.07ZM22.6962 13.7879C22.6962 12.2975 21.4997 11.07 20 11.07V12.93C20.4512 12.93 20.8362 13.3034 20.8362 13.7879H22.6962ZM20.645 14.7179H21.7662V12.8579H20.645V14.7179ZM20 14.065C19.832 14.065 19.715 13.9302 19.715 13.7879H21.575C21.575 12.9244 20.8805 12.205 20 12.205V14.065Z" fill="white" mask="url(#path-2-inside-1_3001_666)"/>
</svg>
