<svg width="40" height="40" viewBox="0 0 40 40" fill="none" xmlns="http://www.w3.org/2000/svg">
<path d="M17.1429 12H12.8571C12.3838 12 12 12.398 12 12.8889V19.1111C12 19.602 12.3838 20 12.8571 20H17.1429C17.6162 20 18 19.602 18 19.1111V12.8889C18 12.398 17.6162 12 17.1429 12Z" stroke="white" stroke-width="1.13" stroke-linecap="round" stroke-linejoin="round"/>
<path d="M27.1429 12H22.8571C22.3838 12 22 12.4477 22 13V16C22 16.5523 22.3838 17 22.8571 17H27.1429C27.6162 17 28 16.5523 28 16V13C28 12.4477 27.6162 12 27.1429 12Z" stroke="white" stroke-width="1.13" stroke-linecap="round" stroke-linejoin="round"/>
<path d="M27.1429 20H22.8571C22.3838 20 22 20.398 22 20.8889V27.1111C22 27.602 22.3838 28 22.8571 28H27.1429C27.6162 28 28 27.602 28 27.1111V20.8889C28 20.398 27.6162 20 27.1429 20Z" stroke="white" stroke-width="1.13" stroke-linecap="round" stroke-linejoin="round"/>
<path d="M17.1429 23H12.8571C12.3838 23 12 23.4477 12 24V27C12 27.5523 12.3838 28 12.8571 28H17.1429C17.6162 28 18 27.5523 18 27V24C18 23.4477 17.6162 23 17.1429 23Z" stroke="white" stroke-width="1.13" stroke-linecap="round" stroke-linejoin="round"/>
</svg>
