<svg width="48" height="48" viewBox="0 0 48 48" fill="none" xmlns="http://www.w3.org/2000/svg">
<path d="M47 18.5C47 21.2309 44.7602 23.9724 40.5233 26.0909C36.3463 28.1794 30.5058 29.5 24 29.5C17.4942 29.5 11.6537 28.1794 7.47665 26.0909C3.23981 23.9724 1 21.2309 1 18.5C1 15.7691 3.23981 13.0276 7.47665 10.9091C11.6537 8.82063 17.4942 7.5 24 7.5C30.5058 7.5 36.3463 8.82063 40.5233 10.9091C44.7602 13.0276 47 15.7691 47 18.5Z" stroke="#2F80ED" stroke-width="2"/>
<path d="M32 43C32 43.6598 31.4391 44.5264 29.9167 45.2876C28.4542 46.0188 26.3637 46.5 24 46.5C21.6363 46.5 19.5458 46.0188 18.0833 45.2876C16.5609 44.5264 16 43.6598 16 43C16 42.3402 16.5609 41.4736 18.0833 40.7124C19.5458 39.9812 21.6363 39.5 24 39.5C26.3637 39.5 28.4542 39.9812 29.9167 40.7124C31.4391 41.4736 32 42.3402 32 43Z" stroke="#2F80ED" stroke-width="2"/>
<path d="M23 42C23 42.5523 23.4477 43 24 43C24.5523 43 25 42.5523 25 42H23ZM25 42V30H23V42H25Z" fill="#2F80ED"/>
<path d="M17.125 11.4167V16.375C17.125 17.1542 17.7625 17.7917 18.5417 17.7917H21.375C21.7507 17.7917 22.1111 17.6424 22.3767 17.3768C22.6424 17.1111 22.7917 16.7507 22.7917 16.375V11.4167" stroke="#2F80ED" stroke-width="2" stroke-linecap="round" stroke-linejoin="round"/>
<path d="M19.9584 11.4167V25.5834" stroke="#2F80ED" stroke-width="2" stroke-linecap="round" stroke-linejoin="round"/>
<path d="M29.875 20.625V11.4167C28.9357 11.4167 28.0349 11.7898 27.3707 12.454C26.7065 13.1182 26.3334 14.019 26.3334 14.9584V19.2084C26.3334 19.9875 26.9709 20.625 27.75 20.625H29.875ZM29.875 20.625V25.5834" stroke="#2F80ED" stroke-width="2" stroke-linecap="round" stroke-linejoin="round"/>
</svg>
