<svg width="40" height="40" viewBox="0 0 40 40" fill="none" xmlns="http://www.w3.org/2000/svg">
<path d="M27 13H13C11.8954 13 11 13.6964 11 14.5556V25.4444C11 26.3036 11.8954 27 13 27H27C28.1046 27 29 26.3036 29 25.4444V14.5556C29 13.6964 28.1046 13 27 13Z" stroke="white" stroke-width="1.13" stroke-linecap="round" stroke-linejoin="round"/>
<path d="M15 19C16.1046 19 17 18.1046 17 17C17 15.8954 16.1046 15 15 15C13.8954 15 13 15.8954 13 17C13 18.1046 13.8954 19 15 19Z" stroke="white" stroke-width="1.13" stroke-linecap="round" stroke-linejoin="round"/>
<path d="M29 20.9999L25.914 17.9139C25.5389 17.539 25.0303 17.3284 24.5 17.3284C23.9697 17.3284 23.4611 17.539 23.086 17.9139L14 26.9999" stroke="white" stroke-width="1.13" stroke-linecap="round" stroke-linejoin="round"/>
</svg>
