<svg width="40" height="40" viewBox="0 0 40 40" fill="none" xmlns="http://www.w3.org/2000/svg">
<path d="M21.7253 27V23.1112C21.7253 22.9049 21.6434 22.707 21.4975 22.5612C21.3516 22.4153 21.1538 22.3334 20.9475 22.3334H18.6142C18.4079 22.3334 18.2101 22.4153 18.0642 22.5612C17.9184 22.707 17.8364 22.9049 17.8364 23.1112V27" stroke="white" stroke-width="1.13" stroke-linecap="round" stroke-linejoin="round"/>
<path d="M13.3365 19.2222V23.8889C13.3365 25.3558 13.3365 26.0884 13.7922 26.5442C14.248 27 14.9807 27 16.4476 27H23.1142C24.5811 27 25.3138 27 25.7696 26.5442C26.2253 26.0884 26.2253 25.3558 26.2253 23.8889V19.2222M13.0417 14.1783C13.1832 13.6121 13.254 13.3298 13.4648 13.1649C13.6763 13 13.968 13 14.5513 13H25.0105C25.5938 13 25.8855 13 26.097 13.1649C26.307 13.3298 26.3786 13.6121 26.5201 14.1783L27.4558 17.9226C27.5312 18.2243 27.5693 18.3744 27.5608 18.4973C27.5501 18.6523 27.4933 18.8006 27.3977 18.923C27.302 19.0454 27.1719 19.1363 27.0241 19.1841C26.9075 19.2222 26.7488 19.2222 26.4307 19.2222C26.0161 19.2222 24.8085 19.2222 24.635 19.1818C24.3945 19.1258 24.1709 19.0133 23.9825 18.8537C23.7941 18.6941 23.6464 18.492 23.5516 18.264C23.4823 18.0991 23.4489 17.8984 23.3828 17.4994C23.3641 17.3874 23.3548 17.3314 23.3439 17.3167C23.3367 17.3067 23.3272 17.2986 23.3163 17.293C23.3053 17.2874 23.2932 17.2845 23.2809 17.2845C23.2686 17.2845 23.2565 17.2874 23.2455 17.293C23.2346 17.2986 23.2251 17.3067 23.2179 17.3167C23.207 17.3314 23.1977 17.3867 23.179 17.4994L23.116 17.8798C23.0655 18.246 22.8862 18.5822 22.6102 18.8282C22.3343 19.0742 21.9798 19.2139 21.6102 19.2222H21.4516C21.082 19.2139 20.7275 19.0742 20.4516 18.8282C20.1756 18.5822 19.9963 18.246 19.9458 17.8798L19.8828 17.4987C19.8641 17.3874 19.8548 17.3314 19.8439 17.3167C19.8367 17.3067 19.8272 17.2986 19.8163 17.293C19.8053 17.2874 19.7932 17.2845 19.7809 17.2845C19.7686 17.2845 19.7565 17.2874 19.7455 17.293C19.7346 17.2986 19.7251 17.3067 19.7179 17.3167C19.707 17.3314 19.6977 17.3867 19.679 17.4994L19.616 17.8798C19.5655 18.246 19.3862 18.5822 19.1102 18.8282C18.8343 19.0742 18.4798 19.2139 18.1102 19.2222H17.9516C17.5958 19.2139 17.2536 19.0838 16.9821 18.8536C16.7106 18.6235 16.5262 18.3072 16.4598 17.9576C16.4542 17.9318 16.4495 17.9059 16.4458 17.8798L16.3828 17.4987C16.3641 17.3874 16.3548 17.3314 16.3439 17.3167C16.3367 17.3067 16.3272 17.2986 16.3163 17.293C16.3053 17.2874 16.2932 17.2845 16.2809 17.2845C16.2686 17.2845 16.2565 17.2874 16.2455 17.293C16.2346 17.2986 16.2251 17.3067 16.2179 17.3167C16.207 17.3314 16.1977 17.3867 16.179 17.4994C16.1129 17.8992 16.0795 18.0983 16.0102 18.264C15.9155 18.4919 15.7679 18.694 15.5797 18.8536C15.3914 19.0132 15.1679 19.1257 14.9276 19.1818C14.7533 19.2222 13.5465 19.2222 13.1311 19.2222C12.813 19.2222 12.6543 19.2222 12.5377 19.1841C12.3899 19.1363 12.2598 19.0454 12.1641 18.923C12.0685 18.8006 12.0117 18.6523 12.001 18.4973C11.9932 18.3744 12.0306 18.2243 12.106 17.9226L13.0417 14.1783Z" stroke="white" stroke-width="1.13"/>
</svg>
