<svg width="40" height="40" viewBox="0 0 40 40" fill="none" xmlns="http://www.w3.org/2000/svg">
<path d="M13 15.1251C13.0002 15.6167 13.1708 16.093 13.4828 16.4729C13.7948 16.8528 14.2289 17.1128 14.7111 17.2086C15.1933 17.3044 15.6938 17.23 16.1273 16.9981C16.5608 16.7662 16.9005 16.3912 17.0885 15.937C17.2765 15.4827 17.3012 14.9773 17.1583 14.5069C17.0155 14.0365 16.714 13.6302 16.3051 13.3571C15.8963 13.0841 15.4054 12.9613 14.9162 13.0096C14.427 13.0579 13.9697 13.2743 13.6222 13.6219C13.4242 13.8189 13.2673 14.0532 13.1605 14.3112C13.0537 14.5692 12.9992 14.8459 13 15.1251ZM13 15.1251C13 15.1251 13 15.1252 13 15.1252L13.0625 15.125L13 15.125C13 15.125 13 15.1251 13 15.1251ZM27 24.8752C27.0008 24.5959 26.9462 24.3193 26.8394 24.0613M27 24.8752L26.8394 24.0613M27 24.8752C26.9998 25.3667 26.8292 25.843 26.5172 26.2229C26.2052 26.6028 25.7711 26.8628 25.2889 26.9586C24.8067 27.0544 24.3062 26.98 23.8727 26.7481C23.4392 26.5162 23.0995 26.1412 22.9115 25.687C22.7235 25.2327 22.6988 24.7273 22.8417 24.2569C22.9845 23.7865 23.286 23.3802 23.6949 23.1071C24.1037 22.8341 24.5946 22.7113 25.0838 22.7596C25.573 22.8079 26.0304 23.0243 26.3779 23.372M27 24.8752L26.3779 23.372M26.8394 24.0613C26.7326 23.8033 26.5758 23.569 26.3779 23.372M26.8394 24.0613L26.3779 23.372M27.1033 13.6024L13.6041 27.1016C13.5094 27.1894 13.3844 27.2372 13.2552 27.2349C13.1257 27.2327 13.0021 27.1802 12.9105 27.0886C12.8189 26.997 12.7664 26.8734 12.7641 26.7438C12.7618 26.6147 12.8096 26.4896 12.8975 26.3949L26.3967 12.8957L26.397 12.8954C26.4434 12.8484 26.4985 12.811 26.5594 12.7854C26.6202 12.7598 26.6855 12.7465 26.7515 12.7463C26.8175 12.7461 26.8829 12.7589 26.9439 12.7841C27.0049 12.8092 27.0604 12.8463 27.107 12.8929C27.1536 12.9396 27.1906 12.9951 27.2157 13.0562C27.2408 13.1172 27.2535 13.1826 27.2532 13.2486C27.2529 13.3146 27.2396 13.3799 27.2139 13.4407L27.2715 13.465L27.2139 13.4407C27.1922 13.4921 27.1621 13.5395 27.1248 13.5809L27.1033 13.6024ZM12.9194 17.331L12.9193 17.3309C12.4089 16.8187 12.0919 16.1454 12.0223 15.4256C11.9527 14.7059 12.1349 13.9843 12.5378 13.3839C12.9407 12.7834 13.5393 12.3413 14.2317 12.1328C14.924 11.9242 15.6673 11.9623 16.3347 12.2404C17.0022 12.5185 17.5526 13.0195 17.892 13.6579C18.2315 14.2963 18.3391 15.0328 18.1964 15.7416C18.0537 16.4505 17.6696 17.0879 17.1096 17.5453C16.5496 18.0027 15.8482 18.2518 15.1252 18.25H15.125C14.7149 18.2501 14.3088 18.1689 13.9302 18.0112C13.5517 17.8535 13.2081 17.6223 12.9194 17.331ZM27.0809 22.6693L27.081 22.6694C27.3723 22.9581 27.6035 23.3017 27.7612 23.6802C27.9189 24.0588 28.0001 24.4649 28 24.875V24.8751C28.0018 25.5982 27.7527 26.2995 27.2953 26.8596C26.838 27.4196 26.2005 27.8037 25.4916 27.9464C24.7828 28.089 24.0464 27.9815 23.4079 27.642C22.7695 27.3025 22.2685 26.7522 21.9904 26.0847C21.7123 25.4173 21.6743 24.674 21.8828 23.9817C22.0913 23.2893 22.5334 22.6907 23.1339 22.2878C23.7343 21.8849 24.4559 21.7027 25.1756 21.7723C25.8954 21.8419 26.5687 22.1589 27.0809 22.6693Z" fill="white" stroke="white" stroke-width="0.125"/>
</svg>
