<svg width="40" height="40" viewBox="0 0 40 40" fill="none" xmlns="http://www.w3.org/2000/svg">
<mask id="path-2-inside-1_3001_269" fill="white">
<path d="M30.8375 21.95C30.7784 21.9944 30.7112 22.0266 30.6396 22.0449C30.568 22.0633 30.4936 22.0673 30.4205 22.0569C30.3473 22.0464 30.277 22.0217 30.2134 21.9841C30.1498 21.9464 30.0943 21.8966 30.05 21.8375C29.5806 21.2065 28.9696 20.6945 28.2661 20.3428C27.5627 19.9911 26.7865 19.8095 26 19.8125C25.8508 19.8125 25.7077 19.7533 25.6023 19.6478C25.4968 19.5423 25.4375 19.3992 25.4375 19.25C25.4375 19.1009 25.4968 18.9578 25.6023 18.8523C25.7077 18.7468 25.8508 18.6875 26 18.6875C26.4559 18.6874 26.9026 18.5595 27.2894 18.3183C27.6762 18.077 27.9876 17.7321 28.1882 17.3228C28.3889 16.9134 28.4707 16.456 28.4244 16.0025C28.3781 15.549 28.2055 15.1175 27.9263 14.7572C27.6471 14.3968 27.2725 14.122 26.8449 13.9638C26.4173 13.8057 25.954 13.7707 25.5075 13.8627C25.061 13.9547 24.6492 14.1701 24.319 14.4844C23.9888 14.7987 23.7533 15.1993 23.6394 15.6407C23.6021 15.7851 23.5089 15.9089 23.3804 15.9846C23.2519 16.0604 23.0985 16.082 22.9541 16.0447C22.8096 16.0074 22.6859 15.9143 22.6101 15.7858C22.5343 15.6572 22.5127 15.5039 22.55 15.3594C22.6914 14.8095 22.9622 14.3014 23.3398 13.8773C23.7174 13.4533 24.1909 13.1257 24.7208 12.9217C25.2507 12.7178 25.8217 12.6435 26.3861 12.705C26.9506 12.7665 27.4922 12.962 27.9657 13.2753C28.4393 13.5885 28.8311 14.0105 29.1086 14.5059C29.386 15.0013 29.541 15.5558 29.5606 16.1233C29.5803 16.6907 29.464 17.2546 29.2215 17.768C28.979 18.2815 28.6173 18.7295 28.1666 19.0747C29.2758 19.4886 30.2422 20.2135 30.95 21.1625C30.9943 21.2216 31.0266 21.2889 31.0449 21.3604C31.0632 21.432 31.0673 21.5065 31.0568 21.5796C31.0464 21.6527 31.0217 21.7231 30.984 21.7866C30.9464 21.8502 30.8966 21.9057 30.8375 21.95ZM25.7366 27.9688C25.7736 28.0327 25.7976 28.1034 25.8073 28.1766C25.8171 28.2499 25.8122 28.3243 25.7932 28.3957C25.7741 28.4671 25.7412 28.534 25.6962 28.5927C25.6513 28.6513 25.5952 28.7006 25.5312 28.7375C25.446 28.7875 25.3489 28.8137 25.25 28.8135C25.1512 28.8135 25.0541 28.7876 24.9685 28.7382C24.883 28.6888 24.8119 28.6178 24.7625 28.5322C24.2736 27.7038 23.577 27.0172 22.7417 26.5403C21.9063 26.0633 20.961 25.8124 19.9991 25.8124C19.0371 25.8124 18.0918 26.0633 17.2565 26.5403C16.4211 27.0172 15.7246 27.7038 15.2356 28.5322C15.2005 28.5994 15.1521 28.6589 15.0933 28.7069C15.0346 28.7549 14.9668 28.7906 14.8939 28.8117C14.8211 28.8329 14.7447 28.839 14.6694 28.8299C14.5941 28.8207 14.5214 28.7965 14.4557 28.7585C14.39 28.7205 14.3327 28.6697 14.2872 28.609C14.2417 28.5483 14.2089 28.479 14.1909 28.4053C14.1728 28.3316 14.1698 28.2551 14.1822 28.1802C14.1945 28.1053 14.2218 28.0337 14.2625 27.9697C15.0287 26.6533 16.2283 25.6439 17.6562 25.1141C16.8762 24.6076 16.2808 23.8626 15.9588 22.99C15.6369 22.1175 15.6056 21.1642 15.8697 20.2725C16.1338 19.3807 16.6792 18.5983 17.4243 18.0418C18.1695 17.4853 19.0746 17.1846 20.0047 17.1846C20.9347 17.1846 21.8399 17.4853 22.585 18.0418C23.3302 18.5983 23.8755 19.3807 24.1397 20.2725C24.4038 21.1642 24.3725 22.1175 24.0505 22.99C23.7286 23.8626 23.1332 24.6076 22.3531 25.1141C23.7771 25.6457 24.9728 26.6546 25.7366 27.9688ZM20 24.6875C20.6304 24.6875 21.2467 24.5006 21.7709 24.1503C22.2951 23.8001 22.7036 23.3023 22.9449 22.7198C23.1861 22.1374 23.2492 21.4965 23.1263 20.8782C23.0033 20.2599 22.6997 19.6919 22.2539 19.2461C21.8081 18.8004 21.2402 18.4968 20.6219 18.3738C20.0035 18.2508 19.3626 18.3139 18.7802 18.5552C18.1978 18.7964 17.6999 19.205 17.3497 19.7292C16.9994 20.2533 16.8125 20.8696 16.8125 21.5C16.8125 22.3454 17.1483 23.1562 17.7461 23.7539C18.3439 24.3517 19.1546 24.6875 20 24.6875ZM14.5625 19.25C14.5625 19.1009 14.5032 18.9578 14.3977 18.8523C14.2923 18.7468 14.1492 18.6875 14 18.6875C13.5442 18.6874 13.0975 18.5594 12.7108 18.3182C12.324 18.077 12.0127 17.7321 11.812 17.3228C11.6114 16.9135 11.5296 16.4562 11.5758 16.0027C11.6221 15.5492 11.7946 15.1178 12.0737 14.7575C12.3528 14.3971 12.7274 14.1222 13.1549 13.964C13.5824 13.8058 14.0457 13.7707 14.4921 13.8626C14.9386 13.9545 15.3503 14.1697 15.6806 14.4838C16.0109 14.798 16.2465 15.1984 16.3606 15.6397C16.3791 15.7113 16.4115 15.7784 16.4559 15.8375C16.5003 15.8965 16.556 15.9462 16.6196 15.9837C16.6832 16.0212 16.7536 16.0458 16.8268 16.0561C16.8999 16.0665 16.9744 16.0623 17.0459 16.0438C17.1175 16.0253 17.1847 15.9929 17.2437 15.9485C17.3027 15.9041 17.3524 15.8485 17.3899 15.7848C17.4274 15.7212 17.452 15.6508 17.4624 15.5776C17.4727 15.5045 17.4685 15.43 17.45 15.3585C17.3086 14.8086 17.0378 14.3004 16.6602 13.8764C16.2826 13.4524 15.8091 13.1247 15.2792 12.9208C14.7493 12.7169 14.1783 12.6426 13.6139 12.7041C13.0494 12.7656 12.5078 12.9611 12.0343 13.2744C11.5607 13.5876 11.1689 14.0095 10.8914 14.5049C10.614 15.0003 10.459 15.5549 10.4394 16.1223C10.4197 16.6898 10.536 17.2537 10.7785 17.7671C11.021 18.2805 11.3827 18.7285 11.8334 19.0738C10.7241 19.488 9.75771 20.2132 9.05 21.1625C9.00568 21.2216 8.97343 21.2889 8.9551 21.3604C8.93677 21.432 8.93271 21.5065 8.94315 21.5796C8.9536 21.6527 8.97835 21.7231 9.01598 21.7866C9.05362 21.8502 9.10341 21.9057 9.1625 21.95C9.22159 21.9944 9.28884 22.0266 9.3604 22.0449C9.43196 22.0633 9.50642 22.0673 9.57955 22.0569C9.65268 22.0464 9.72303 22.0217 9.78659 21.9841C9.85015 21.9464 9.90568 21.8966 9.95 21.8375C10.4194 21.2065 11.0304 20.6945 11.7339 20.3428C12.4373 19.9911 13.2135 19.8095 14 19.8125C14.1492 19.8125 14.2923 19.7533 14.3977 19.6478C14.5032 19.5423 14.5625 19.3992 14.5625 19.25Z"/>
</mask>
<path d="M30.8375 21.95C30.7784 21.9944 30.7112 22.0266 30.6396 22.0449C30.568 22.0633 30.4936 22.0673 30.4205 22.0569C30.3473 22.0464 30.277 22.0217 30.2134 21.9841C30.1498 21.9464 30.0943 21.8966 30.05 21.8375C29.5806 21.2065 28.9696 20.6945 28.2661 20.3428C27.5627 19.9911 26.7865 19.8095 26 19.8125C25.8508 19.8125 25.7077 19.7533 25.6023 19.6478C25.4968 19.5423 25.4375 19.3992 25.4375 19.25C25.4375 19.1009 25.4968 18.9578 25.6023 18.8523C25.7077 18.7468 25.8508 18.6875 26 18.6875C26.4559 18.6874 26.9026 18.5595 27.2894 18.3183C27.6762 18.077 27.9876 17.7321 28.1882 17.3228C28.3889 16.9134 28.4707 16.456 28.4244 16.0025C28.3781 15.549 28.2055 15.1175 27.9263 14.7572C27.6471 14.3968 27.2725 14.122 26.8449 13.9638C26.4173 13.8057 25.954 13.7707 25.5075 13.8627C25.061 13.9547 24.6492 14.1701 24.319 14.4844C23.9888 14.7987 23.7533 15.1993 23.6394 15.6407C23.6021 15.7851 23.5089 15.9089 23.3804 15.9846C23.2519 16.0604 23.0985 16.082 22.9541 16.0447C22.8096 16.0074 22.6859 15.9143 22.6101 15.7858C22.5343 15.6572 22.5127 15.5039 22.55 15.3594C22.6914 14.8095 22.9622 14.3014 23.3398 13.8773C23.7174 13.4533 24.1909 13.1257 24.7208 12.9217C25.2507 12.7178 25.8217 12.6435 26.3861 12.705C26.9506 12.7665 27.4922 12.962 27.9657 13.2753C28.4393 13.5885 28.8311 14.0105 29.1086 14.5059C29.386 15.0013 29.541 15.5558 29.5606 16.1233C29.5803 16.6907 29.464 17.2546 29.2215 17.768C28.979 18.2815 28.6173 18.7295 28.1666 19.0747C29.2758 19.4886 30.2422 20.2135 30.95 21.1625C30.9943 21.2216 31.0266 21.2889 31.0449 21.3604C31.0632 21.432 31.0673 21.5065 31.0568 21.5796C31.0464 21.6527 31.0217 21.7231 30.984 21.7866C30.9464 21.8502 30.8966 21.9057 30.8375 21.95ZM25.7366 27.9688C25.7736 28.0327 25.7976 28.1034 25.8073 28.1766C25.8171 28.2499 25.8122 28.3243 25.7932 28.3957C25.7741 28.4671 25.7412 28.534 25.6962 28.5927C25.6513 28.6513 25.5952 28.7006 25.5312 28.7375C25.446 28.7875 25.3489 28.8137 25.25 28.8135C25.1512 28.8135 25.0541 28.7876 24.9685 28.7382C24.883 28.6888 24.8119 28.6178 24.7625 28.5322C24.2736 27.7038 23.577 27.0172 22.7417 26.5403C21.9063 26.0633 20.961 25.8124 19.9991 25.8124C19.0371 25.8124 18.0918 26.0633 17.2565 26.5403C16.4211 27.0172 15.7246 27.7038 15.2356 28.5322C15.2005 28.5994 15.1521 28.6589 15.0933 28.7069C15.0346 28.7549 14.9668 28.7906 14.8939 28.8117C14.8211 28.8329 14.7447 28.839 14.6694 28.8299C14.5941 28.8207 14.5214 28.7965 14.4557 28.7585C14.39 28.7205 14.3327 28.6697 14.2872 28.609C14.2417 28.5483 14.2089 28.479 14.1909 28.4053C14.1728 28.3316 14.1698 28.2551 14.1822 28.1802C14.1945 28.1053 14.2218 28.0337 14.2625 27.9697C15.0287 26.6533 16.2283 25.6439 17.6562 25.1141C16.8762 24.6076 16.2808 23.8626 15.9588 22.99C15.6369 22.1175 15.6056 21.1642 15.8697 20.2725C16.1338 19.3807 16.6792 18.5983 17.4243 18.0418C18.1695 17.4853 19.0746 17.1846 20.0047 17.1846C20.9347 17.1846 21.8399 17.4853 22.585 18.0418C23.3302 18.5983 23.8755 19.3807 24.1397 20.2725C24.4038 21.1642 24.3725 22.1175 24.0505 22.99C23.7286 23.8626 23.1332 24.6076 22.3531 25.1141C23.7771 25.6457 24.9728 26.6546 25.7366 27.9688ZM20 24.6875C20.6304 24.6875 21.2467 24.5006 21.7709 24.1503C22.2951 23.8001 22.7036 23.3023 22.9449 22.7198C23.1861 22.1374 23.2492 21.4965 23.1263 20.8782C23.0033 20.2599 22.6997 19.6919 22.2539 19.2461C21.8081 18.8004 21.2402 18.4968 20.6219 18.3738C20.0035 18.2508 19.3626 18.3139 18.7802 18.5552C18.1978 18.7964 17.6999 19.205 17.3497 19.7292C16.9994 20.2533 16.8125 20.8696 16.8125 21.5C16.8125 22.3454 17.1483 23.1562 17.7461 23.7539C18.3439 24.3517 19.1546 24.6875 20 24.6875ZM14.5625 19.25C14.5625 19.1009 14.5032 18.9578 14.3977 18.8523C14.2923 18.7468 14.1492 18.6875 14 18.6875C13.5442 18.6874 13.0975 18.5594 12.7108 18.3182C12.324 18.077 12.0127 17.7321 11.812 17.3228C11.6114 16.9135 11.5296 16.4562 11.5758 16.0027C11.6221 15.5492 11.7946 15.1178 12.0737 14.7575C12.3528 14.3971 12.7274 14.1222 13.1549 13.964C13.5824 13.8058 14.0457 13.7707 14.4921 13.8626C14.9386 13.9545 15.3503 14.1697 15.6806 14.4838C16.0109 14.798 16.2465 15.1984 16.3606 15.6397C16.3791 15.7113 16.4115 15.7784 16.4559 15.8375C16.5003 15.8965 16.556 15.9462 16.6196 15.9837C16.6832 16.0212 16.7536 16.0458 16.8268 16.0561C16.8999 16.0665 16.9744 16.0623 17.0459 16.0438C17.1175 16.0253 17.1847 15.9929 17.2437 15.9485C17.3027 15.9041 17.3524 15.8485 17.3899 15.7848C17.4274 15.7212 17.452 15.6508 17.4624 15.5776C17.4727 15.5045 17.4685 15.43 17.45 15.3585C17.3086 14.8086 17.0378 14.3004 16.6602 13.8764C16.2826 13.4524 15.8091 13.1247 15.2792 12.9208C14.7493 12.7169 14.1783 12.6426 13.6139 12.7041C13.0494 12.7656 12.5078 12.9611 12.0343 13.2744C11.5607 13.5876 11.1689 14.0095 10.8914 14.5049C10.614 15.0003 10.459 15.5549 10.4394 16.1223C10.4197 16.6898 10.536 17.2537 10.7785 17.7671C11.021 18.2805 11.3827 18.7285 11.8334 19.0738C10.7241 19.488 9.75771 20.2132 9.05 21.1625C9.00568 21.2216 8.97343 21.2889 8.9551 21.3604C8.93677 21.432 8.93271 21.5065 8.94315 21.5796C8.9536 21.6527 8.97835 21.7231 9.01598 21.7866C9.05362 21.8502 9.10341 21.9057 9.1625 21.95C9.22159 21.9944 9.28884 22.0266 9.3604 22.0449C9.43196 22.0633 9.50642 22.0673 9.57955 22.0569C9.65268 22.0464 9.72303 22.0217 9.78659 21.9841C9.85015 21.9464 9.90568 21.8966 9.95 21.8375C10.4194 21.2065 11.0304 20.6945 11.7339 20.3428C12.4373 19.9911 13.2135 19.8095 14 19.8125C14.1492 19.8125 14.2923 19.7533 14.3977 19.6478C14.5032 19.5423 14.5625 19.3992 14.5625 19.25Z" fill="white" stroke="white" stroke-width="0.25" mask="url(#path-2-inside-1_3001_269)"/>
</svg>
